<?xml version="1.0" encoding="utf-8"?>
<!-- Generator: Adobe Illustrator 22.0.1, SVG Export Plug-In . SVG Version: 6.00 Build 0)  -->
<svg version="1.1" id="Layer_1" xmlns="http://www.w3.org/2000/svg" xmlns:xlink="http://www.w3.org/1999/xlink" x="0px" y="0px"
	 viewBox="0 0 938.2 406.1" style="enable-background:new 0 0 938.2 406.1;" xml:space="preserve">
<style type="text/css">
	.st0{fill:#B0D400;}
	.st1{fill:#FFFFFF;}
	.st2{fill:none;stroke:#FFFFFF;stroke-miterlimit:10;}
	.st3{fill:#007575;}
	.st4{fill:none;stroke:#007575;stroke-miterlimit:10;}
</style>
<g>
	<g>
		<g>
			<g>
				<g>
					<path class="st0" d="M338.3,221.4h-36.9v0.9l0,0v14.9c0,4.9,3.8,8.9,8.5,8.9H327c4.7,0,8.5-4,8.5-8.9v-2.1h2.8
						c3.6,0,6.5-3.1,6.5-6.9C344.9,224.5,341.9,221.4,338.3,221.4z M338.3,233.4h-2.8v-10.2h2.8c2.7,0,4.8,2.3,4.8,5.1
						C343.1,231.1,341,233.4,338.3,233.4z"/>
				</g>
			</g>
		</g>
	</g>
	<g>
		<g>
			<g>
				<g>
					<path class="st0" d="M310.6,216.3l1.1,2.3c0.2,0.4,0.6,0.6,1,0.6c0.2,0,0.3-0.1,0.5-0.1c0.5-0.3,0.8-1,0.5-1.5l-1.1-2.3
						c-0.3-0.7-0.1-2.3,0.9-3.2c1.5-1.6,2-4.1,1.3-5.8l-1.1-2.3c-0.3-0.5-0.9-0.8-1.5-0.5c-0.5,0.3-0.8,1-0.5,1.5l1.1,2.3
						c0.3,0.7,0.1,2.3-0.9,3.2C310.4,212,309.8,214.6,310.6,216.3z"/>
				</g>
			</g>
		</g>
	</g>
	<g>
		<g>
			<g>
				<g>
					<path class="st0" d="M316.8,216.3l1.1,2.3c0.2,0.4,0.6,0.6,1,0.6c0.2,0,0.3-0.1,0.5-0.1c0.5-0.3,0.8-1,0.5-1.5l-1.1-2.3
						c-0.3-0.7-0.1-2.3,0.9-3.2c1.5-1.6,2-4.1,1.3-5.8l-1.1-2.3c-0.3-0.5-0.9-0.8-1.5-0.5c-0.5,0.3-0.8,1-0.5,1.5l1.1,2.3
						c0.3,0.7,0.1,2.3-0.9,3.2C316.5,212,316,214.6,316.8,216.3z"/>
				</g>
			</g>
		</g>
	</g>
	<g>
		<g>
			<g>
				<g>
					<g>
						<path class="st0" d="M310.6,216.3l1.1,2.3c0.2,0.4,0.6,0.6,1,0.6c0.2,0,0.3-0.1,0.5-0.1c0.5-0.3,0.8-1,0.5-1.5l-1.1-2.3
							c-0.3-0.7-0.1-2.3,0.9-3.2c1.5-1.6,2-4.1,1.3-5.8l-1.1-2.3c-0.3-0.5-0.9-0.8-1.5-0.5c-0.5,0.3-0.8,1-0.5,1.5l1.1,2.3
							c0.3,0.7,0.1,2.3-0.9,3.2C310.4,212,309.8,214.6,310.6,216.3z"/>
					</g>
				</g>
			</g>
		</g>
		<g>
			<g>
				<g>
					<g>
						<path class="st0" d="M316.8,216.3l1.1,2.3c0.2,0.4,0.6,0.6,1,0.6c0.2,0,0.3-0.1,0.5-0.1c0.5-0.3,0.8-1,0.5-1.5l-1.1-2.3
							c-0.3-0.7-0.1-2.3,0.9-3.2c1.5-1.6,2-4.1,1.3-5.8l-1.1-2.3c-0.3-0.5-0.9-0.8-1.5-0.5c-0.5,0.3-0.8,1-0.5,1.5l1.1,2.3
							c0.3,0.7,0.1,2.3-0.9,3.2C316.5,212,316,214.6,316.8,216.3z"/>
					</g>
				</g>
			</g>
		</g>
		<g>
			<g>
				<g>
					<g>
						<path class="st0" d="M323.2,216.3l1.1,2.3c0.2,0.4,0.6,0.6,1,0.6c0.2,0,0.3-0.1,0.5-0.1c0.5-0.3,0.8-1,0.5-1.5l-1.1-2.3
							c-0.3-0.7-0.1-2.3,0.9-3.2c1.5-1.6,2-4.1,1.3-5.8l-1.1-2.3c-0.3-0.5-0.9-0.8-1.5-0.5c-0.5,0.3-0.8,1-0.5,1.5l1.1,2.3
							c0.3,0.7,0.1,2.3-0.9,3.2C323,212,322.5,214.6,323.2,216.3z"/>
					</g>
				</g>
			</g>
		</g>
	</g>
	<g>
		<g>
			<g>
				<g>
					<path class="st0" d="M323.2,216.3l1.1,2.3c0.2,0.4,0.6,0.6,1,0.6c0.2,0,0.3-0.1,0.5-0.1c0.5-0.3,0.8-1,0.5-1.5l-1.1-2.3
						c-0.3-0.7-0.1-2.3,0.9-3.2c1.5-1.6,2-4.1,1.3-5.8l-1.1-2.3c-0.3-0.5-0.9-0.8-1.5-0.5c-0.5,0.3-0.8,1-0.5,1.5l1.1,2.3
						c0.3,0.7,0.1,2.3-0.9,3.2C323,212,322.5,214.6,323.2,216.3z"/>
				</g>
			</g>
		</g>
	</g>
</g>
<g>
	<g>
		<g>
			<g>
				<g>
					<path class="st1" d="M670.1,404.5h-9.7c-3.4,0-6.4-2.1-6.4-4.4v-43.8H491v-1h163.9v44.8c0,1.6,2.4,3.4,5.4,3.4h9.7
						c3.1,0,5.4-1.8,5.4-3.4v-84.9h1v84.9C676.5,402.4,673.5,404.5,670.1,404.5z"/>
				</g>
			</g>
		</g>
		<g>
			<g>
				<g>
					<path class="st2" d="M676,268.2"/>
				</g>
			</g>
		</g>
		<g>
			<g>
				<g>
					<path class="st2" d="M272.6,268.2"/>
				</g>
			</g>
		</g>
		<g>
			<g>
				<g>
					<polygon class="st1" points="178.1,315.2 177.1,315.2 178.1,315.2 					"/>
				</g>
			</g>
		</g>
		<g>
			<g>
				<g>
					<path class="st1" d="M193.3,404.5h-9.7c-3.4,0-6.4-2.1-6.4-4.4v-84.9h1v84.9c0,1.6,2.4,3.4,5.4,3.4h9.7c3.1,0,5.4-1.8,5.4-3.4
						v-44.8h259.1v1H199.7v43.8C199.7,402.4,196.7,404.5,193.3,404.5z"/>
				</g>
			</g>
		</g>
		<g>
			<g>
				<g>
					<path class="st2" d="M676.1,315.2"/>
				</g>
			</g>
		</g>
	</g>
	<g>
		<g>
			<g>
				<g>
					<polygon class="st3" points="676.3,315.2 675.3,315.2 675.3,268.7 560.9,268.7 560.9,267.7 676.3,267.7 					"/>
				</g>
			</g>
		</g>
		<g>
			<g>
				<g>
					<polygon class="st3" points="178.1,315.2 177.1,315.2 177.1,267.7 381.8,267.7 381.8,268.7 178.1,268.7 					"/>
				</g>
			</g>
		</g>
	</g>
</g>
<g>
	<g>
		<g>
			<g>
				<g>
					<path class="st3" d="M528.7,315.7H420.6c-4.9,0-9.6-1.9-13.1-5.4s-5.4-8.1-5.4-13.1c0-10.2,8.3-18.5,18.5-18.5h108.1
						c10.2,0,18.5,8.3,18.5,18.5S538.9,315.7,528.7,315.7z M420.6,279.7c-9.7,0-17.5,7.9-17.5,17.5c0,4.7,1.8,9.1,5.1,12.4
						c3.3,3.3,7.7,5.1,12.4,5.1h108.1c9.7,0,17.5-7.9,17.5-17.5s-7.9-17.5-17.5-17.5H420.6z"/>
				</g>
			</g>
		</g>
		<g>
			<g>
				<g>
					<path class="st1" d="M411.6,406.1c-6.2,0-11.3-5.1-11.3-11.3s5.1-11.3,11.3-11.3s11.3,5.1,11.3,11.3S417.9,406.1,411.6,406.1z
						 M411.6,384.5c-5.7,0-10.3,4.6-10.3,10.3s4.6,10.3,10.3,10.3s10.3-4.6,10.3-10.3S417.3,384.5,411.6,384.5z"/>
				</g>
			</g>
		</g>
		<g>
			<g>
				<g>
					<path class="st1" d="M537.7,406.1c-6.2,0-11.3-5.1-11.3-11.3s5.1-11.3,11.3-11.3c6.2,0,11.3,5.1,11.3,11.3
						S543.9,406.1,537.7,406.1z M537.7,384.5c-5.7,0-10.3,4.6-10.3,10.3s4.6,10.3,10.3,10.3s10.3-4.6,10.3-10.3
						S543.4,384.5,537.7,384.5z"/>
				</g>
			</g>
		</g>
		<g>
			<g>
				<g>
					<path class="st1" d="M474.7,406.1c-6.2,0-11.3-5.1-11.3-11.3s5.1-11.3,11.3-11.3c6.2,0,11.3,5.1,11.3,11.3
						S480.9,406.1,474.7,406.1z M474.7,384.5c-5.7,0-10.3,4.6-10.3,10.3s4.6,10.3,10.3,10.3c5.7,0,10.3-4.6,10.3-10.3
						S480.4,384.5,474.7,384.5z"/>
				</g>
			</g>
		</g>
		<g>
			<g>
				<g>
					<path class="st1" d="M543.5,382.5h-11.6c-1.1,0-2.1-0.9-2.5-2.2v0c-0.7-2.8-4.4-4.8-11.4-6.2c-9.2-1.8-22.5-2-35.4-2.1v8.1
						c0,1.3-1,2.3-2.3,2.3h-11.6c-1.3,0-2.3-1-2.3-2.3v-8.1c-12.9,0-26.2,0.3-35.4,2.1c-6.9,1.4-10.6,3.4-11.4,6.2
						c-0.3,1.3-1.3,2.2-2.5,2.2h-11.6c-0.6,0-1.2-0.3-1.7-0.7c-0.4-0.4-0.6-1-0.6-1.6c0.8-11.4,9-18.8,24.4-21.8
						c9.1-1.8,20.4-2.2,30.3-2.3c1.6-3.4,4.7-6.9,8.2-9.3v-7.4c-5.2-0.1-9.4-4.3-9.4-9.5v-9.5h35v9.5c0,5.2-4.2,9.5-9.4,9.5v7.4
						c3.5,2.4,6.5,5.9,8.2,9.3c9.9,0.1,21.3,0.5,30.3,2.3c15.4,3.1,23.7,10.4,24.4,21.8c0,0.6-0.2,1.2-0.6,1.6
						C544.7,382.3,544.1,382.5,543.5,382.5z M530.4,380.1c0.2,0.7,0.7,1.4,1.5,1.4h11.6c0.4,0,0.7-0.1,0.9-0.4
						c0.2-0.2,0.3-0.5,0.3-0.9c-0.8-10.9-8.7-17.9-23.6-20.9c-9.1-1.8-20.5-2.2-30.5-2.3l-0.3,0l-0.1-0.3c-1.6-3.4-4.7-6.9-8.2-9.3
						l-0.2-0.1v-9h0.9c4.7,0,8.5-3.8,8.5-8.5v-8.5h-33v8.5c0,4.7,3.8,8.5,8.5,8.5h0.9v9l-0.2,0.1c-3.5,2.4-6.6,5.9-8.2,9.3L459,357
						l-0.3,0c-10,0.1-21.4,0.5-30.5,2.3c-14.9,3-22.9,10-23.6,20.9c0,0.3,0.1,0.6,0.3,0.9c0.2,0.3,0.6,0.4,0.9,0.4h11.6
						c0.8,0,1.3-0.7,1.5-1.4c0.8-3.2,4.8-5.4,12.1-6.9c9.4-1.9,23-2.1,36-2.1l0.5,0v9.1c0,0.7,0.6,1.3,1.3,1.3h11.6
						c0.7,0,1.3-0.6,1.3-1.3v-9.1l0.5,0c13.1,0,26.6,0.2,36,2.1C525.6,374.7,529.6,377,530.4,380.1L530.4,380.1z"/>
				</g>
			</g>
		</g>
	</g>
	<g>
		<g>
			<g>
				<g>
					<path class="st3" d="M508.4,271.2h-72c-9.7,0-18.2-3.8-23.9-10.6c-5.7-6.8-7.8-15.8-6-25.4l13.7-73.3
						c3.7-19.7,23.1-35.8,43.1-35.8h18c20.1,0,39.4,16.1,43.1,35.8l13.7,73.3c1.8,9.6-0.3,18.6-6,25.4S518.1,271.2,508.4,271.2z
						 M463.4,127.1c-19.6,0-38.5,15.7-42.2,35l-13.7,73.3c-1.7,9.3,0.3,18,5.8,24.6c5.5,6.6,13.7,10.2,23.1,10.2h72
						c9.4,0,17.6-3.6,23.1-10.2s7.5-15.3,5.8-24.6l-13.7-73.3c-3.6-19.3-22.5-35-42.2-35H463.4z"/>
				</g>
			</g>
		</g>
		<g>
			<g>
				<g>
					<path class="st3" d="M550.9,272.2c-4.2,0-7.7-3.5-7.7-7.7v-51.9c0-4.2,3.5-7.7,7.7-7.7s7.7,3.5,7.7,7.7v51.9
						C558.6,268.7,555.1,272.2,550.9,272.2z M550.9,205.9c-3.7,0-6.7,3-6.7,6.7v51.9c0,3.7,3,6.7,6.7,6.7s6.7-3,6.7-6.7v-51.9
						C557.6,208.9,554.6,205.9,550.9,205.9z"/>
				</g>
			</g>
		</g>
		<g>
			<g>
				<g>
					<path class="st3" d="M393.9,272.2c-4.2,0-7.7-3.5-7.7-7.7v-51.9c0-4.2,3.5-7.7,7.7-7.7c4.2,0,7.7,3.5,7.7,7.7v51.9
						C401.6,268.7,398.2,272.2,393.9,272.2z M393.9,205.9c-3.7,0-6.7,3-6.7,6.7v51.9c0,3.7,3,6.7,6.7,6.7c3.7,0,6.7-3,6.7-6.7v-51.9
						C400.6,208.9,397.6,205.9,393.9,205.9z"/>
				</g>
			</g>
		</g>
	</g>
</g>
<g>
	<g>
		<g>
			<path class="st3" d="M382.2,266.1h-212c-2.4,0-4.3-1.9-4.3-4.3v-10c0-2.4,1.9-4.3,4.3-4.3h212v1h-212c-1.8,0-3.3,1.5-3.3,3.3v10
				c0,1.8,1.5,3.3,3.3,3.3h212V266.1z"/>
		</g>
	</g>
</g>
<g>
	<g>
		<g>
			<path class="st3" d="M685.7,266.1h-125v-1h125c1.8,0,3.3-1.5,3.3-3.3v-10c0-1.8-1.5-3.3-3.3-3.3h-125v-1h125
				c2.4,0,4.3,1.9,4.3,4.3v10C690.1,264.2,688.1,266.1,685.7,266.1z"/>
		</g>
	</g>
</g>
<g>
	<g>
		<g>
			<rect x="402.1" y="268.6" class="st3" width="19.9" height="1"/>
		</g>
	</g>
</g>
<g>
	<g>
		<g>
			<rect x="523" y="268.6" class="st3" width="19.9" height="1"/>
		</g>
	</g>
</g>
<g>
	<g>
		<g>
			<g>
				<g>
					<path class="st3" d="M720,315.2h-1V16.9c0-9.2,7.5-16.7,16.7-16.7h185.9c9.2,0,16.7,7.5,16.7,16.7v298.3h-1V16.9
						c0-8.6-7-15.7-15.7-15.7H735.7c-8.6,0-15.7,7-15.7,15.7V315.2z"/>
				</g>
			</g>
		</g>
		<g>
			<g>
				<g>
					<path class="st1" d="M760.4,381.1h-17.2v-57.6h17.2V381.1z M744.3,380.1h15.2v-55.6h-15.2V380.1z"/>
				</g>
			</g>
		</g>
		<g>
			<g>
				<g>
					<path class="st3" d="M760.4,284.1h-17.2v-57.6h17.2V284.1z M744.3,283.1h15.2v-55.6h-15.2V283.1z"/>
				</g>
			</g>
		</g>
		<g>
			<g>
				<g>
					<path class="st3" d="M873.6,284.1h-17.2v-57.6h17.2V284.1z M857.4,283.1h15.2v-55.6h-15.2V283.1z"/>
				</g>
			</g>
		</g>
		<g>
			<g>
				<g>
					<path class="st3" d="M873.6,187.1h-17.2v-57.6h17.2V187.1z M857.4,186.1h15.2v-55.6h-15.2V186.1z"/>
				</g>
			</g>
		</g>
		<g>
			<g>
				<g>
					<path class="st3" d="M800.8,90.1h-57.6V73h57.6V90.1z M744.3,89.1h55.6V74h-55.6V89.1z"/>
				</g>
			</g>
		</g>
		<g>
			<g>
				<g>
					<path class="st3" d="M800.8,49.7h-57.6V32.6h57.6V49.7z M744.3,48.7h55.6V33.6h-55.6V48.7z"/>
				</g>
			</g>
		</g>
		<g>
			<g>
				<g>
					<path class="st3" d="M800.8,69.9h-57.6V52.8h57.6V69.9z M744.3,68.9h55.6V53.8h-55.6V68.9z"/>
				</g>
			</g>
		</g>
		<g>
			<g>
				<g>
					<path class="st3" d="M824.8,187l-14.9-8.6l28.8-49.9l14.9,8.6L824.8,187z M811.3,178.1l13.1,7.6l27.8-48.1l-13.1-7.6
						L811.3,178.1z"/>
				</g>
			</g>
		</g>
		<g>
			<g>
				<g>
					<path class="st1" d="M800.8,381.1h-17.2v-57.6h17.2V381.1z M784.7,380.1h15.2v-55.6h-15.2V380.1z"/>
				</g>
			</g>
		</g>
		<g>
			<g>
				<g>
					<path class="st3" d="M833.2,284.1H816v-57.6h17.2V284.1z M817,283.1h15.2v-55.6H817V283.1z"/>
				</g>
			</g>
		</g>
		<g>
			<g>
				<g>
					<path class="st3" d="M914,284.1h-17.2v-57.6H914V284.1z M897.8,283.1H913v-55.6h-15.2V283.1z"/>
				</g>
			</g>
		</g>
		<g>
			<g>
				<g>
					<path class="st3" d="M914,187.1h-17.2v-57.6H914V187.1z M897.8,186.1H913v-55.6h-15.2V186.1z"/>
				</g>
			</g>
		</g>
		<g>
			<g>
				<g>
					<path class="st1" d="M780.6,381.1h-17.2v-57.6h17.2V381.1z M764.5,380.1h15.2v-55.6h-15.2V380.1z"/>
				</g>
			</g>
		</g>
		<g>
			<g>
				<g>
					<path class="st3" d="M780.6,284.1h-17.2v-57.6h17.2V284.1z M764.5,283.1h15.2v-55.6h-15.2V283.1z"/>
				</g>
			</g>
		</g>
		<g>
			<g>
				<g>
					<path class="st3" d="M893.8,284.1h-17.2v-57.6h17.2V284.1z M877.6,283.1h15.2v-55.6h-15.2V283.1z"/>
				</g>
			</g>
		</g>
		<g>
			<g>
				<g>
					<path class="st3" d="M893.8,187.1h-17.2v-57.6h17.2V187.1z M877.6,186.1h15.2v-55.6h-15.2V186.1z"/>
				</g>
			</g>
		</g>
		<g>
			<g>
				<g>
					<path class="st1" d="M821.1,381.1h-17.2v-57.6h17.2V381.1z M804.9,380.1h15.2v-55.6h-15.2V380.1z"/>
				</g>
			</g>
		</g>
		<g>
			<g>
				<g>
					<path class="st3" d="M853.4,284.1h-17.2v-57.6h17.2V284.1z M837.2,283.1h15.2v-55.6h-15.2V283.1z"/>
				</g>
			</g>
		</g>
		<g>
			<g>
				<g>
					<path class="st1" d="M852.9,381.3l-28.8-49.9l14.9-8.6l28.8,49.9L852.9,381.3z M825.5,331.8l27.8,48.1l13.1-7.6l-27.8-48.1
						L825.5,331.8z"/>
				</g>
			</g>
		</g>
		<g>
			<g>
				<g>
					<path class="st3" d="M836.8,90.4L808,40.5l14.9-8.6l28.8,49.9L836.8,90.4z M809.4,40.9L837.2,89l13.1-7.6l-27.8-48.1
						L809.4,40.9z"/>
				</g>
			</g>
		</g>
		<g>
			<g>
				<g>
					<rect x="719.9" y="384.1" class="st1" width="218.2" height="1"/>
				</g>
			</g>
		</g>
		<g>
			<g>
				<g>
					<rect x="719.5" y="287.2" class="st3" width="218.2" height="1"/>
				</g>
			</g>
		</g>
		<g>
			<g>
				<g>
					<rect x="719.5" y="190.2" class="st3" width="218.2" height="1"/>
				</g>
			</g>
		</g>
		<g>
			<g>
				<g>
					<rect x="719.5" y="93.2" class="st3" width="218.2" height="1"/>
				</g>
			</g>
		</g>
	</g>
	<g>
		<g>
			<g>
				<g>
					<g>
						<path class="st3" d="M748.5,187.3h-17.2c-1.2,0-2.2-1-2.2-2.2v-67.2c0-1.2,1-2.2,2.2-2.2h17.2c1.2,0,2.2,1,2.2,2.2v67.2
							C750.7,186.3,749.7,187.3,748.5,187.3z M731.2,116.7c-0.7,0-1.2,0.5-1.2,1.2v67.2c0,0.7,0.5,1.2,1.2,1.2h17.2
							c0.7,0,1.2-0.5,1.2-1.2v-67.2c0-0.7-0.5-1.2-1.2-1.2H731.2z M739.9,180.4c-3.1,0-5.7-2.5-5.7-5.7c0-3.1,2.5-5.7,5.7-5.7
							s5.7,2.5,5.7,5.7C745.5,177.9,743,180.4,739.9,180.4z M739.9,170.1c-2.6,0-4.7,2.1-4.7,4.7c0,2.6,2.1,4.7,4.7,4.7
							s4.7-2.1,4.7-4.7C744.5,172.2,742.4,170.1,739.9,170.1z M745,156.3h-10.3c-1.2,0-2.2-1-2.2-2.2v-27.6c0-1.2,1-2.2,2.2-2.2H745
							c1.2,0,2.2,1,2.2,2.2v27.6C747.2,155.3,746.3,156.3,745,156.3z M734.7,125.3c-0.7,0-1.2,0.5-1.2,1.2v27.6
							c0,0.7,0.5,1.2,1.2,1.2H745c0.7,0,1.2-0.5,1.2-1.2v-27.6c0-0.7-0.5-1.2-1.2-1.2H734.7z"/>
					</g>
				</g>
			</g>
		</g>
		<g>
			<g>
				<g>
					<g>
						<path class="st3" d="M772.6,187.3h-17.2c-1.2,0-2.2-1-2.2-2.2v-67.2c0-1.2,1-2.2,2.2-2.2h17.2c1.2,0,2.2,1,2.2,2.2v67.2
							C774.8,186.3,773.8,187.3,772.6,187.3z M755.4,116.7c-0.7,0-1.2,0.5-1.2,1.2v67.2c0,0.7,0.5,1.2,1.2,1.2h17.2
							c0.7,0,1.2-0.5,1.2-1.2v-67.2c0-0.7-0.5-1.2-1.2-1.2H755.4z M764,180.4c-3.1,0-5.7-2.5-5.7-5.7c0-3.1,2.5-5.7,5.7-5.7
							c3.1,0,5.7,2.5,5.7,5.7C769.7,177.9,767.1,180.4,764,180.4z M764,170.1c-2.6,0-4.7,2.1-4.7,4.7c0,2.6,2.1,4.7,4.7,4.7
							c2.6,0,4.7-2.1,4.7-4.7C768.7,172.2,766.6,170.1,764,170.1z M769.2,156.3h-10.3c-1.2,0-2.2-1-2.2-2.2v-27.6
							c0-1.2,1-2.2,2.2-2.2h10.3c1.2,0,2.2,1,2.2,2.2v27.6C771.4,155.3,770.4,156.3,769.2,156.3z M758.8,125.3
							c-0.7,0-1.2,0.5-1.2,1.2v27.6c0,0.7,0.5,1.2,1.2,1.2h10.3c0.7,0,1.2-0.5,1.2-1.2v-27.6c0-0.7-0.5-1.2-1.2-1.2H758.8z"/>
					</g>
				</g>
			</g>
		</g>
		<g>
			<g>
				<g>
					<g>
						<path class="st3" d="M796.7,187.3h-17.2c-1.2,0-2.2-1-2.2-2.2v-67.2c0-1.2,1-2.2,2.2-2.2h17.2c1.2,0,2.2,1,2.2,2.2v67.2
							C798.9,186.3,798,187.3,796.7,187.3z M779.5,116.7c-0.7,0-1.2,0.5-1.2,1.2v67.2c0,0.7,0.5,1.2,1.2,1.2h17.2
							c0.7,0,1.2-0.5,1.2-1.2v-67.2c0-0.7-0.5-1.2-1.2-1.2H779.5z M788.1,180.4c-3.1,0-5.7-2.5-5.7-5.7c0-3.1,2.5-5.7,5.7-5.7
							c3.1,0,5.7,2.5,5.7,5.7C793.8,177.9,791.2,180.4,788.1,180.4z M788.1,170.1c-2.6,0-4.7,2.1-4.7,4.7c0,2.6,2.1,4.7,4.7,4.7
							c2.6,0,4.7-2.1,4.7-4.7C792.8,172.2,790.7,170.1,788.1,170.1z M793.3,156.3h-10.3c-1.2,0-2.2-1-2.2-2.2v-27.6
							c0-1.2,1-2.2,2.2-2.2h10.3c1.2,0,2.2,1,2.2,2.2v27.6C795.5,155.3,794.5,156.3,793.3,156.3z M782.9,125.3
							c-0.7,0-1.2,0.5-1.2,1.2v27.6c0,0.7,0.5,1.2,1.2,1.2h10.3c0.7,0,1.2-0.5,1.2-1.2v-27.6c0-0.7-0.5-1.2-1.2-1.2H782.9z"/>
					</g>
				</g>
			</g>
		</g>
	</g>
</g>
<g>
	<g>
		<g>
			<g>
				<g>
					<path class="st3" d="M250.1,245.9h-41.5l-6.3-35.1h53.6L250.1,245.9z M209.5,244.9h39.8l5.4-33.1h-51.2L209.5,244.9z"/>
				</g>
			</g>
		</g>
		<g>
			<g>
				<g>
					<path class="st3" d="M257.4,208.4h-56.6l-3.2-12.5h29.8v-6.6c-3.4-0.3-15.5-1.6-23.8-7.3c-9.7-6.7-10.5-15.9-10.5-16.2l0-0.4
						l0.3-0.1c1.9-0.7,9.7-1.2,20.9,5.6c7.2,4.3,11.1,10.4,13,14.2v-20.9c-2.9-0.2-12.9-1.1-20.6-6.1c-9.3-6-10.1-11.2-9.6-12.5
						l0.1-0.3l0.3,0c0.4,0,10.2-1.1,18.9,3.8c5.7,3.3,9.1,8.3,10.9,11.6v-36c-0.2-2.9,0-8.4,3.4-13c4.6-6.2,13-8.8,13.9-8.1
						c0.8,0.6,1.1,7-3.5,14.1c-3.2,4.9-7.4,6.8-10.4,8.3l-0.1,0v18.7c1.1-2.8,3-6.3,6.5-9c6.2-4.8,14.3-5.8,15.4-5
						c0.4,0.3,0.5,0.9,0.5,1.3c0.1,2.2-1.5,6.1-6.2,10.3c-5.6,4.9-13.7,6.7-16.1,7.1v13.2c1.7-3.1,5.4-8.5,11.6-11.8
						c8.9-4.8,18.7-3.4,19.1-3.4l0.3,0l0.1,0.3c0.4,1.4-0.6,6.5-10.1,12.3c-8,4.8-18,5.5-21,5.6v19.3c2.6-3.7,7.4-9.1,14.5-12.3
						c11.1-5,22.9-3.5,23.4-2.5c0.2,0.3,0.1,0.8-0.1,1.5c-0.3,1.1-2.6,7-13.3,12.5l0,0c-9.1,4.7-19.9,5.2-24.6,5.2v6.6h29.8
						L257.4,208.4z M201.6,207.4h55l2.7-10.5h-29.5v-8.6l0.5,0c4.3,0.1,15.3-0.3,24.6-5.1l0,0c10.7-5.5,12.9-11.5,12.9-12.6
						c-1.4-0.6-11.7-1.9-22.1,2.8c-7.8,3.5-12.7,9.8-15,13.3l-0.9,1.4v-62.9l0.6-0.3c3.1-1.4,6.9-3.2,10-7.9
						c4-6.1,4.1-11.5,3.8-12.7c-1.4,0.1-8.3,2.2-12.5,7.8c-3.2,4.3-3.4,9.6-3.2,12.3l0,72.3h-29.5L201.6,207.4z M194.2,166.1
						c0.3,1.8,1.8,9.5,10,15.1c8.3,5.7,20.7,6.9,23.6,7.2l-0.3-0.8c-1.3-3.1-5.1-10.7-13.6-15.8
						C203.5,165.4,196.3,165.6,194.2,166.1z M257.8,148.3c-3.6,0-9.5,0.5-15,3.4c-7.2,3.8-10.9,10.6-12,13
						c2.7-0.1,12.6-0.8,20.4-5.4c8.3-5,9.7-9.4,9.7-10.8C260.3,148.3,259.2,148.3,257.8,148.3z M198.1,146.2
						c-0.1,1.4,1.2,5.9,9.2,11.1c7.5,4.9,17.3,5.8,20.1,5.9l0-0.1c-0.9-2.1-4.3-9.1-11.4-13.1C208.6,145.6,200,146,198.1,146.2z
						 M251.3,131.4c-2.1,0-8.3,1-13.5,5.1c-4.9,3.8-6.6,9.4-7.1,11.7l-0.1,0.3c2.2-0.4,10.2-2.2,15.5-6.9c6.4-5.6,6-9.7,5.8-10.1
						C251.8,131.4,251.6,131.4,251.3,131.4z M244.1,104.2L244.1,104.2L244.1,104.2z"/>
				</g>
			</g>
		</g>
		<g>
			<g>
				<g>
					<path class="st3" d="M228.4,146.3l-0.6-0.1c-0.4-0.1-10.1-2.1-16-8.2c-4.9-5.1-5.3-8.8-5.2-10.1c0-0.8,0.3-1.4,0.6-1.7
						c1.1-0.9,9.1,0.6,14.9,5.8c5.9,5.4,6.3,13.4,6.4,13.7L228.4,146.3z M208.2,126.8c-0.3,0-0.4,0-0.5,0.1c0,0-0.2,0.3-0.2,1.1
						c0,1,0.3,4.5,5,9.3c4.9,5,12.5,7.2,14.8,7.7c-0.2-2-1.3-8.1-6-12.3C216.3,128.1,210.1,126.8,208.2,126.8z"/>
				</g>
			</g>
		</g>
	</g>
</g>
<g>
	<g>
		<g>
			<g>
				<path class="st4" d="M121,403.6"/>
			</g>
		</g>
	</g>
	<g>
		<g>
			<g>
				<path class="st3" d="M82,198.4l0-185.5h7.5v185.5L82,198.4z M83,13.9v183.5l5.5,0V13.9H83z"/>
			</g>
		</g>
	</g>
	<g>
		<g>
			<g>
				<path class="st3" d="M83,115.5h-8.7V21.9H83V115.5z M75.3,114.5H82V22.9h-6.7V114.5z"/>
			</g>
		</g>
	</g>
	<g>
		<g>
			<g>
				<path class="st3" d="M97.3,198.4h-8.7V42.6h8.7V198.4z M89.6,197.4h6.7V43.6h-6.7V197.4z"/>
			</g>
		</g>
	</g>
	<g>
		<g>
			<g>
				<path class="st1" d="M127.6,404h-1c0-7.8-18.4-14.1-41.1-14.1c-22.7,0-41.1,6.3-41.1,14.1h-1c0-8.4,18.5-15.1,42.1-15.1
					S127.6,395.6,127.6,404z"/>
			</g>
		</g>
	</g>
	<g>
		<g>
			<g>
				<path class="st3" d="M66.4,314.5L0,260l0.1-0.3L43.5,74.3l0.1-0.1l24.3-32.1L66.4,314.5z M1.1,259.7l64.3,52.7l1.4-267.2
					L44.4,74.8L1.1,259.7z"/>
			</g>
		</g>
	</g>
	<g>
		<g>
			<g>
				<polygon class="st3" points="64.5,184.7 47.7,99.9 65.2,105.1 64.9,106.1 49,101.4 65.5,184.5 				"/>
			</g>
		</g>
	</g>
	<g>
		<g>
			<g>
				<polygon class="st3" points="65.5,103.9 55.1,73.7 65.6,52.1 66.5,52.5 56.2,73.7 66.5,103.6 				"/>
			</g>
		</g>
	</g>
	<g>
		<g>
			<g>
				<g>
					<path class="st3" d="M131.5,228.6h-19.4v-8h-5.7v8H87c-3.1,0-5.5-2.5-5.5-5.5v-25.6h18v-6.7h19.6v6.7h18V223
						C137,226.1,134.6,228.6,131.5,228.6z M113.1,227.6h18.4c2.5,0,4.5-2,4.5-4.5v-24.6h-18v-6.7h-17.6v6.7h-18V223
						c0,2.5,2,4.5,4.5,4.5h18.4v-8h7.7V227.6z M116,198.4h-13.5V194H116V198.4z M103.5,197.4H115V195h-11.5V197.4z"/>
				</g>
			</g>
		</g>
		<g>
			<g>
				<g>
					<path class="st3" d="M140.2,252.6H78.3c-3.1,0-5.6-2.6-5.6-5.9v-44.9h8.2v22.5c0,2.7,2.1,4.9,4.6,4.9h20.9v8.6h5.7v-8.6H133
						c2.6,0,4.6-2.2,4.6-4.9v-22.5h8.2v44.9C145.8,250,143.3,252.6,140.2,252.6z M73.7,202.8v43.9c0,2.7,2.1,4.9,4.6,4.9h61.9
						c2.6,0,4.6-2.2,4.6-4.9v-43.9h-6.2v21.5c0,3.2-2.5,5.9-5.6,5.9h-19.9v8.6h-7.7v-8.6H85.5c-3.1,0-5.6-2.6-5.6-5.9v-21.5H73.7z"
						/>
				</g>
			</g>
		</g>
	</g>
	<g>
		<g>
			<g>
				<polygon class="st3" points="74.5,25.4 53.9,4.6 57.9,0 78.6,22 77.9,22.7 57.9,1.5 55.3,4.6 75.2,24.7 				"/>
			</g>
		</g>
	</g>
	<g>
		<g>
			<g>
				<polygon class="st3" points="96.7,46.5 96,45.9 114,27.2 111.9,25 94.2,43.5 93.5,42.8 111.9,23.6 115.3,27.2 				"/>
			</g>
		</g>
	</g>
	<g>
		<g>
			<g>
				<polygon class="st3" points="74.4,64.7 66.7,54.7 66.7,49.4 75.2,60.7 74.4,61.3 67.7,52.4 67.7,54.4 75.2,64.1 				"/>
			</g>
		</g>
	</g>
	<g>
		<g>
			<g>
				<rect x="88.6" y="252.1" class="st3" width="1" height="63.1"/>
			</g>
		</g>
	</g>
	<g>
		<g>
			<g>
				<rect x="81.5" y="252.5" class="st3" width="1" height="62.7"/>
			</g>
		</g>
	</g>
	<g>
		<g>
			<g>
				<rect x="88.6" y="315.2" class="st1" width="1" height="74.2"/>
			</g>
		</g>
	</g>
	<g>
		<g>
			<g>
				<rect x="81.5" y="315.7" class="st1" width="1" height="73.8"/>
			</g>
		</g>
	</g>
	<g>
		<g>
			<g>
				<path class="st4" d="M109.3,194.5"/>
			</g>
		</g>
	</g>
	<g>
		<g>
			<g>
				
					<rect x="96.3" y="195.1" transform="matrix(0.6093 -0.7929 0.7929 0.6093 -116.5747 154.5581)" class="st3" width="4.6" height="1"/>
			</g>
		</g>
	</g>
</g>
<g>
	<g>
		<g>
			<rect x="43.9" y="403.2" class="st1" width="83.2" height="1"/>
		</g>
	</g>
</g>
<g>
	<g>
		<g>
		</g>
	</g>
</g>
<g>
	<g>
		<g>
			<path class="st4" d="M676.1,315.2"/>
		</g>
	</g>
</g>
<g>
	<g>
		<g>
			<path class="st1" d="M921.6,404.9H735.7c-9.2,0-16.7-7.5-16.7-16.7v-73.5h1v73.5c0,8.6,7,15.7,15.7,15.7h185.9
				c8.6,0,15.7-7,15.7-15.7v-73.5h1v73.5C938.2,397.5,930.8,404.9,921.6,404.9z"/>
		</g>
	</g>
</g>
<g transform="translate(-270 -260)">
	<g>
		<g>
			<g>
				<g>
					<path class="st3" d="M936.3,505.9h-56.4v-5.3h17v-4.3h8.5v-9.1l27.7-27.7l-38.9-38.9l-2.9,4.9c2.4,9-0.1,18.6-6.7,25.1
						l-6.4,6.4l-36.8-36.8l6.4-6.4c6.5-6.5,16.1-9,25.1-6.7l14.5-8.7l12.6,12.6l-3,4.9l58.1,58.1l-3.7,3.7l-14.5-14.5l-26.1,26.1
						v6.9h8.5v4.3h17V505.9z M880.9,504.9h54.4v-3.3h-17v-4.3h-8.5v-8.3l27.1-27.1l14.5,14.5l2.3-2.3l-57.9-57.9l3-4.9l-11.5-11.5
						l-14.2,8.5l-0.2-0.1c-8.7-2.4-18,0-24.3,6.3l-5.7,5.7l35.4,35.4l5.7-5.7c6.3-6.3,8.7-15.6,6.3-24.3l-0.1-0.2l3.8-6.4l40.6,40.6
						l-28.1,28.1v9.7h-8.5v4.3h-17V504.9z"/>
				</g>
			</g>
		</g>
	</g>
</g>
</svg>
