<svg width="163" height="180" viewBox="0 0 163 180" fill="none" xmlns="http://www.w3.org/2000/svg">
<g filter="url(#filter0_d)">
<circle cx="85.5" cy="73.5" r="47.5" fill="#EDEDED"/>
</g>
<path d="M40.3496 121.089H42.2051V122.173H40.3496V124.287H39.1973V122.173H37.332V121.089H39.1973V119.111H40.3496V121.089Z" fill="#F2F2F2"/>
<path d="M72.0488 109.267H77.6152V112.519H72.0488V118.861H68.5918V112.519H62.9961V109.267H68.5918V103.334H72.0488V109.267Z" fill="#F2F2F2"/>
<path d="M62.5635 83.8652C62.5635 83.2158 62.644 82.6982 62.8052 82.3125C62.9663 81.9268 63.2837 81.5044 63.7573 81.0454C64.2358 80.5815 64.5386 80.252 64.6655 80.0566C64.8608 79.7588 64.9585 79.4365 64.9585 79.0898C64.9585 78.6309 64.8438 78.2817 64.6143 78.0425C64.3896 77.7983 64.0576 77.6763 63.6182 77.6763C63.1982 77.6763 62.8589 77.7959 62.6001 78.0352C62.3462 78.2695 62.2192 78.5894 62.2192 78.9946H60.4395C60.4492 78.1304 60.7422 77.4468 61.3184 76.9438C61.8994 76.4409 62.666 76.1895 63.6182 76.1895C64.5996 76.1895 65.3638 76.4385 65.9106 76.9365C66.4624 77.4346 66.7383 78.1304 66.7383 79.0239C66.7383 79.8198 66.3672 80.6035 65.625 81.375L64.7241 82.2612C64.4019 82.6274 64.2358 83.1621 64.2261 83.8652H62.5635ZM62.439 86.1431C62.439 85.855 62.5293 85.623 62.71 85.4473C62.8906 85.2666 63.1348 85.1763 63.4424 85.1763C63.7549 85.1763 64.0015 85.269 64.1821 85.4546C64.3628 85.6353 64.4531 85.8647 64.4531 86.1431C64.4531 86.4116 64.3652 86.6362 64.1895 86.8169C64.0137 86.9976 63.7646 87.0879 63.4424 87.0879C63.1201 87.0879 62.8711 86.9976 62.6953 86.8169C62.5244 86.6362 62.439 86.4116 62.439 86.1431Z" fill="#F2F2F2"/>
<path d="M7.56348 63.8652C7.56348 63.2158 7.64404 62.6982 7.80518 62.3125C7.96631 61.9268 8.28369 61.5044 8.75732 61.0454C9.23584 60.5815 9.53857 60.252 9.66553 60.0566C9.86084 59.7588 9.9585 59.4365 9.9585 59.0898C9.9585 58.6309 9.84375 58.2817 9.61426 58.0425C9.38965 57.7983 9.05762 57.6763 8.61816 57.6763C8.19824 57.6763 7.85889 57.7959 7.6001 58.0352C7.34619 58.2695 7.21924 58.5894 7.21924 58.9946H5.43945C5.44922 58.1304 5.74219 57.4468 6.31836 56.9438C6.89941 56.4409 7.66602 56.1895 8.61816 56.1895C9.59961 56.1895 10.3638 56.4385 10.9106 56.9365C11.4624 57.4346 11.7383 58.1304 11.7383 59.0239C11.7383 59.8198 11.3672 60.6035 10.625 61.375L9.72412 62.2612C9.40186 62.6274 9.23584 63.1621 9.22607 63.8652H7.56348ZM7.43896 66.1431C7.43896 65.855 7.5293 65.623 7.70996 65.4473C7.89062 65.2666 8.13477 65.1763 8.44238 65.1763C8.75488 65.1763 9.00146 65.269 9.18213 65.4546C9.36279 65.6353 9.45312 65.8647 9.45312 66.1431C9.45312 66.4116 9.36523 66.6362 9.18945 66.8169C9.01367 66.9976 8.76465 67.0879 8.44238 67.0879C8.12012 67.0879 7.87109 66.9976 7.69531 66.8169C7.52441 66.6362 7.43896 66.4116 7.43896 66.1431Z" fill="#F2F2F2"/>
<path d="M97.5635 71.8652C97.5635 71.2158 97.644 70.6982 97.8052 70.3125C97.9663 69.9268 98.2837 69.5044 98.7573 69.0454C99.2358 68.5815 99.5386 68.252 99.6655 68.0566C99.8608 67.7588 99.9585 67.4365 99.9585 67.0898C99.9585 66.6309 99.8438 66.2817 99.6143 66.0425C99.3896 65.7983 99.0576 65.6763 98.6182 65.6763C98.1982 65.6763 97.8589 65.7959 97.6001 66.0352C97.3462 66.2695 97.2192 66.5894 97.2192 66.9946H95.4395C95.4492 66.1304 95.7422 65.4468 96.3184 64.9438C96.8994 64.4409 97.666 64.1895 98.6182 64.1895C99.5996 64.1895 100.364 64.4385 100.911 64.9365C101.462 65.4346 101.738 66.1304 101.738 67.0239C101.738 67.8198 101.367 68.6035 100.625 69.375L99.7241 70.2612C99.4019 70.6274 99.2358 71.1621 99.2261 71.8652H97.5635ZM97.439 74.1431C97.439 73.855 97.5293 73.623 97.71 73.4473C97.8906 73.2666 98.1348 73.1763 98.4424 73.1763C98.7549 73.1763 99.0015 73.269 99.1821 73.4546C99.3628 73.6353 99.4531 73.8647 99.4531 74.1431C99.4531 74.4116 99.3652 74.6362 99.1895 74.8169C99.0137 74.9976 98.7646 75.0879 98.4424 75.0879C98.1201 75.0879 97.8711 74.9976 97.6953 74.8169C97.5244 74.6362 97.439 74.4116 97.439 74.1431Z" fill="#F2F2F2"/>
<path d="M95.0762 34.2383C95.0762 33.459 95.1729 32.8379 95.3662 32.375C95.5596 31.9121 95.9404 31.4053 96.5088 30.8545C97.083 30.2979 97.4463 29.9023 97.5986 29.668C97.833 29.3105 97.9502 28.9238 97.9502 28.5078C97.9502 27.957 97.8125 27.5381 97.5371 27.251C97.2676 26.958 96.8691 26.8115 96.3418 26.8115C95.8379 26.8115 95.4307 26.9551 95.1201 27.2422C94.8154 27.5234 94.6631 27.9072 94.6631 28.3936H92.5273C92.5391 27.3564 92.8906 26.5361 93.582 25.9326C94.2793 25.3291 95.1992 25.0273 96.3418 25.0273C97.5195 25.0273 98.4365 25.3262 99.0928 25.9238C99.7549 26.5215 100.086 27.3564 100.086 28.4287C100.086 29.3838 99.6406 30.3242 98.75 31.25L97.6689 32.3135C97.2822 32.7529 97.083 33.3945 97.0713 34.2383H95.0762ZM94.9268 36.9717C94.9268 36.626 95.0352 36.3477 95.252 36.1367C95.4688 35.9199 95.7617 35.8115 96.1309 35.8115C96.5059 35.8115 96.8018 35.9229 97.0186 36.1455C97.2354 36.3623 97.3438 36.6377 97.3438 36.9717C97.3438 37.2939 97.2383 37.5635 97.0273 37.7803C96.8164 37.9971 96.5176 38.1055 96.1309 38.1055C95.7441 38.1055 95.4453 37.9971 95.2344 37.7803C95.0293 37.5635 94.9268 37.2939 94.9268 36.9717Z" fill="#F2F2F2"/>
<path d="M94.418 113.82C94.418 112.954 94.5254 112.264 94.7402 111.75C94.9551 111.236 95.3783 110.673 96.0098 110.061C96.6478 109.442 97.0514 109.003 97.2207 108.742C97.4811 108.345 97.6113 107.915 97.6113 107.453C97.6113 106.841 97.4583 106.376 97.1523 106.057C96.8529 105.731 96.4102 105.568 95.8242 105.568C95.2643 105.568 94.8118 105.728 94.4668 106.047C94.1283 106.359 93.959 106.786 93.959 107.326H91.5859C91.599 106.174 91.9896 105.262 92.7578 104.592C93.5326 103.921 94.5547 103.586 95.8242 103.586C97.1328 103.586 98.1517 103.918 98.8809 104.582C99.6165 105.246 99.9844 106.174 99.9844 107.365C99.9844 108.426 99.4896 109.471 98.5 110.5L97.2988 111.682C96.8691 112.17 96.6478 112.883 96.6348 113.82H94.418ZM94.252 116.857C94.252 116.473 94.3724 116.164 94.6133 115.93C94.8542 115.689 95.1797 115.568 95.5898 115.568C96.0065 115.568 96.3353 115.692 96.5762 115.939C96.8171 116.18 96.9375 116.486 96.9375 116.857C96.9375 117.215 96.8203 117.515 96.5859 117.756C96.3516 117.997 96.0195 118.117 95.5898 118.117C95.1602 118.117 94.8281 117.997 94.5938 117.756C94.3659 117.515 94.252 117.215 94.252 116.857Z" fill="#F2F2F2"/>
<path d="M46.127 165.73C46.127 164.432 46.2881 163.396 46.6104 162.625C46.9326 161.854 47.5674 161.009 48.5146 160.091C49.4717 159.163 50.0771 158.504 50.3311 158.113C50.7217 157.518 50.917 156.873 50.917 156.18C50.917 155.262 50.6875 154.563 50.2285 154.085C49.7793 153.597 49.1152 153.353 48.2363 153.353C47.3965 153.353 46.7178 153.592 46.2002 154.07C45.6924 154.539 45.4385 155.179 45.4385 155.989H41.8789C41.8984 154.261 42.4844 152.894 43.6367 151.888C44.7988 150.882 46.332 150.379 48.2363 150.379C50.1992 150.379 51.7275 150.877 52.8213 151.873C53.9248 152.869 54.4766 154.261 54.4766 156.048C54.4766 157.64 53.7344 159.207 52.25 160.75L50.4482 162.522C49.8037 163.255 49.4717 164.324 49.4521 165.73H46.127ZM45.8779 170.286C45.8779 169.71 46.0586 169.246 46.4199 168.895C46.7812 168.533 47.2695 168.353 47.8848 168.353C48.5098 168.353 49.0029 168.538 49.3643 168.909C49.7256 169.271 49.9062 169.729 49.9062 170.286C49.9062 170.823 49.7305 171.272 49.3789 171.634C49.0273 171.995 48.5293 172.176 47.8848 172.176C47.2402 172.176 46.7422 171.995 46.3906 171.634C46.0488 171.272 45.8779 170.823 45.8779 170.286Z" fill="#F2F2F2"/>
<path d="M23.127 104.73C23.127 103.432 23.2881 102.396 23.6104 101.625C23.9326 100.854 24.5674 100.009 25.5146 99.0908C26.4717 98.1631 27.0771 97.5039 27.3311 97.1133C27.7217 96.5176 27.917 95.873 27.917 95.1797C27.917 94.2617 27.6875 93.5635 27.2285 93.085C26.7793 92.5967 26.1152 92.3525 25.2363 92.3525C24.3965 92.3525 23.7178 92.5918 23.2002 93.0703C22.6924 93.5391 22.4385 94.1787 22.4385 94.9893H18.8789C18.8984 93.2607 19.4844 91.8936 20.6367 90.8877C21.7988 89.8818 23.332 89.3789 25.2363 89.3789C27.1992 89.3789 28.7275 89.877 29.8213 90.873C30.9248 91.8691 31.4766 93.2607 31.4766 95.0479C31.4766 96.6396 30.7344 98.207 29.25 99.75L27.4482 101.522C26.8037 102.255 26.4717 103.324 26.4521 104.73H23.127ZM22.8779 109.286C22.8779 108.71 23.0586 108.246 23.4199 107.895C23.7812 107.533 24.2695 107.353 24.8848 107.353C25.5098 107.353 26.0029 107.538 26.3643 107.909C26.7256 108.271 26.9062 108.729 26.9062 109.286C26.9062 109.823 26.7305 110.272 26.3789 110.634C26.0273 110.995 25.5293 111.176 24.8848 111.176C24.2402 111.176 23.7422 110.995 23.3906 110.634C23.0488 110.272 22.8779 109.823 22.8779 109.286Z" fill="#F2F2F2"/>
<path d="M125.709 140.91C125.709 140.477 125.763 140.132 125.87 139.875C125.978 139.618 126.189 139.336 126.505 139.03C126.824 138.721 127.026 138.501 127.11 138.371C127.241 138.173 127.306 137.958 127.306 137.727C127.306 137.421 127.229 137.188 127.076 137.028C126.926 136.866 126.705 136.784 126.412 136.784C126.132 136.784 125.906 136.864 125.733 137.023C125.564 137.18 125.479 137.393 125.479 137.663H124.293C124.299 137.087 124.495 136.631 124.879 136.296C125.266 135.961 125.777 135.793 126.412 135.793C127.066 135.793 127.576 135.959 127.94 136.291C128.308 136.623 128.492 137.087 128.492 137.683C128.492 138.213 128.245 138.736 127.75 139.25L127.149 139.841C126.935 140.085 126.824 140.441 126.817 140.91H125.709ZM125.626 142.429C125.626 142.237 125.686 142.082 125.807 141.965C125.927 141.844 126.09 141.784 126.295 141.784C126.503 141.784 126.668 141.846 126.788 141.97C126.909 142.09 126.969 142.243 126.969 142.429C126.969 142.608 126.91 142.757 126.793 142.878C126.676 142.998 126.51 143.059 126.295 143.059C126.08 143.059 125.914 142.998 125.797 142.878C125.683 142.757 125.626 142.608 125.626 142.429Z" fill="#F2F2F2"/>
<path d="M70.3594 147.742H73.3281V149.477H70.3594V152.859H68.5156V149.477H65.5312V147.742H68.5156V144.578H70.3594V147.742Z" fill="#F2F2F2"/>
<path d="M97.3594 51.7422H100.328V53.4766H97.3594V56.8594H95.5156V53.4766H92.5312V51.7422H95.5156V48.5781H97.3594V51.7422Z" fill="#F2F2F2"/>
<path d="M21.6895 134.524H24.2871V136.042H21.6895V139.002H20.0762V136.042H17.4648V134.524H20.0762V131.756H21.6895V134.524Z" fill="#F2F2F2"/>
<path d="M5.02441 86.1333H7.80762V87.7593H5.02441V90.9307H3.2959V87.7593H0.498047V86.1333H3.2959V83.167H5.02441V86.1333Z" fill="#F2F2F2"/>
<path d="M32.709 51.8311H37.5332V54.6494H32.709V60.1465H29.7129V54.6494H24.8633V51.8311H29.7129V46.6895H32.709V51.8311Z" fill="#F2F2F2"/>
<path d="M68.0293 43.96H71.3691V45.9111H68.0293V49.7168H65.9551V45.9111H62.5977V43.96H65.9551V40.4004H68.0293V43.96Z" fill="#F2F2F2"/>
<path d="M119.059 70.9199H125.738V74.8223H119.059V82.4336H114.91V74.8223H108.195V70.9199H114.91V63.8008H119.059V70.9199Z" fill="#F2F2F2"/>
<path d="M124.699 94.1777H128.41V96.3457H124.699V100.574H122.395V96.3457H118.664V94.1777H122.395V90.2227H124.699V94.1777Z" fill="#F2F2F2"/>
<path d="M83.6846 128.698H85.7256V129.89H83.6846V132.216H82.417V129.89H80.3652V128.698H82.417V126.522H83.6846V128.698Z" fill="#F2F2F2"/>
<path d="M93.5293 91.1665H88.6587V89.3481H93.5293V91.1665Z" fill="#F2F2F2"/>
<path d="M44.7305 90.3682H37.04V87.4971H44.7305V90.3682Z" fill="#F2F2F2"/>
<path d="M62.2012 124.202H59.3813V123.149H62.2012V124.202Z" fill="#F2F2F2"/>
<path d="M72.2012 67.2017H69.3813V66.1489H72.2012V67.2017Z" fill="#F2F2F2"/>
<path d="M7.27539 119.64H0.866699V117.248H7.27539V119.64Z" fill="#F2F2F2"/>
<path d="M39.2012 146.202H36.3813V145.149H39.2012V146.202Z" fill="#F2F2F2"/>
<path d="M101.73 161.368H94.04V158.497H101.73V161.368Z" fill="#F2F2F2"/>
<path d="M115.73 127.368H108.04V124.497H115.73V127.368Z" fill="#F2F2F2"/>
<path d="M112.955 83.4375V81.2691H59.0449V83.4375L85.9999 99L112.955 83.4375Z" fill="#005FAD"/>
<path d="M112.955 81.2691L85.9999 65.7067L59.0449 81.2691L85.9999 96.8316L112.955 81.2691Z" fill="#0071CE"/>
<path d="M112.955 71.0842V68.9158H59.0449V71.0842L85.9999 86.6465L112.955 71.0842Z" fill="#C50143"/>
<path d="M112.955 68.9158L85.9999 53.3534L59.0449 68.9158L85.9999 84.4783L112.955 68.9158Z" fill="#C50143"/>
<path d="M112.955 58.7308V56.5624H59.0449V58.7308L85.9999 74.2931L112.955 58.7308Z" fill="#E0B03B"/>
<path d="M112.955 56.5624L85.9999 41L59.0449 56.5624L85.9999 72.1247L112.955 56.5624Z" fill="#FFC843"/>
<defs>
<filter id="filter0_d" x="8" y="0" width="155" height="155" filterUnits="userSpaceOnUse" color-interpolation-filters="sRGB">
<feFlood flood-opacity="0" result="BackgroundImageFix"/>
<feColorMatrix in="SourceAlpha" type="matrix" values="0 0 0 0 0 0 0 0 0 0 0 0 0 0 0 0 0 0 127 0"/>
<feOffset dy="4"/>
<feGaussianBlur stdDeviation="15"/>
<feColorMatrix type="matrix" values="0 0 0 0 0 0 0 0 0 0 0 0 0 0 0 0 0 0 0.1 0"/>
<feBlend mode="normal" in2="BackgroundImageFix" result="effect1_dropShadow"/>
<feBlend mode="normal" in="SourceGraphic" in2="effect1_dropShadow" result="shape"/>
</filter>
</defs>
</svg>
