<svg width="51" height="11" viewBox="0 0 51 11" fill="none" xmlns="http://www.w3.org/2000/svg">
<path d="M6.28906 8H5.34668L1.76758 2.52148V8H0.825195V0.890625H1.76758L5.35645 6.39355V0.890625H6.28906V8ZM7.57324 5.30957C7.57324 4.79199 7.67415 4.3265 7.87598 3.91309C8.08105 3.49967 8.36426 3.18066 8.72559 2.95605C9.09017 2.73145 9.50521 2.61914 9.9707 2.61914C10.6901 2.61914 11.2712 2.86816 11.7139 3.36621C12.1598 3.86426 12.3828 4.52669 12.3828 5.35352V5.41699C12.3828 5.93132 12.2835 6.39355 12.085 6.80371C11.8896 7.21061 11.6081 7.52799 11.2402 7.75586C10.8757 7.98372 10.4557 8.09766 9.98047 8.09766C9.26432 8.09766 8.68327 7.84863 8.2373 7.35059C7.7946 6.85254 7.57324 6.19336 7.57324 5.37305V5.30957ZM8.48145 5.41699C8.48145 6.00293 8.61654 6.47331 8.88672 6.82812C9.16016 7.18294 9.52474 7.36035 9.98047 7.36035C10.4395 7.36035 10.804 7.18132 11.0742 6.82324C11.3444 6.46191 11.4795 5.95736 11.4795 5.30957C11.4795 4.73014 11.3411 4.26139 11.0645 3.90332C10.791 3.54199 10.4264 3.36133 9.9707 3.36133C9.52474 3.36133 9.16504 3.53874 8.8916 3.89355C8.61816 4.24837 8.48145 4.75618 8.48145 5.41699ZM16.1377 8V0.890625H18.1445C18.763 0.890625 19.3099 1.02734 19.7852 1.30078C20.2604 1.57422 20.6266 1.96322 20.8838 2.46777C21.1442 2.97233 21.276 3.55176 21.2793 4.20605V4.66016C21.2793 5.33073 21.1491 5.91829 20.8887 6.42285C20.6315 6.92741 20.262 7.31478 19.7803 7.58496C19.3018 7.85514 18.7435 7.99349 18.1055 8H16.1377ZM17.0752 1.66211V7.2334H18.0615C18.7842 7.2334 19.3457 7.00879 19.7461 6.55957C20.1497 6.11035 20.3516 5.4707 20.3516 4.64062V4.22559C20.3516 3.41829 20.1611 2.79167 19.7803 2.3457C19.4027 1.89648 18.8656 1.66862 18.1689 1.66211H17.0752ZM24.751 8.09766C24.0348 8.09766 23.4521 7.86328 23.0029 7.39453C22.5537 6.92253 22.3291 6.29264 22.3291 5.50488V5.33887C22.3291 4.81478 22.4284 4.34766 22.627 3.9375C22.8288 3.52409 23.1087 3.20182 23.4668 2.9707C23.8281 2.73633 24.2188 2.61914 24.6387 2.61914C25.3255 2.61914 25.8594 2.84538 26.2402 3.29785C26.6211 3.75033 26.8115 4.39811 26.8115 5.24121V5.61719H23.2324C23.2454 6.13802 23.3968 6.55957 23.6865 6.88184C23.9795 7.20085 24.3506 7.36035 24.7998 7.36035C25.1188 7.36035 25.389 7.29525 25.6104 7.16504C25.8317 7.03483 26.0254 6.8623 26.1914 6.64746L26.7432 7.07715C26.3005 7.75749 25.6364 8.09766 24.751 8.09766ZM24.6387 3.36133C24.2741 3.36133 23.9681 3.49479 23.7207 3.76172C23.4733 4.02539 23.3203 4.39648 23.2617 4.875H25.9082V4.80664C25.8822 4.34766 25.7585 3.99284 25.5371 3.74219C25.3158 3.48828 25.0163 3.36133 24.6387 3.36133ZM30.9375 6.59863C30.9375 6.35449 30.8447 6.16569 30.6592 6.03223C30.4769 5.89551 30.1562 5.77832 29.6973 5.68066C29.2415 5.58301 28.8786 5.46582 28.6084 5.3291C28.3415 5.19238 28.1429 5.02962 28.0127 4.84082C27.8857 4.65202 27.8223 4.42741 27.8223 4.16699C27.8223 3.73405 28.0046 3.36784 28.3691 3.06836C28.737 2.76888 29.2057 2.61914 29.7754 2.61914C30.3743 2.61914 30.8594 2.77376 31.2305 3.08301C31.6048 3.39225 31.792 3.78776 31.792 4.26953H30.8838C30.8838 4.02214 30.778 3.80892 30.5664 3.62988C30.3581 3.45085 30.0944 3.36133 29.7754 3.36133C29.4466 3.36133 29.1895 3.43294 29.0039 3.57617C28.8184 3.7194 28.7256 3.90658 28.7256 4.1377C28.7256 4.35579 28.8118 4.52018 28.9844 4.63086C29.1569 4.74154 29.4678 4.84733 29.917 4.94824C30.3695 5.04915 30.7357 5.1696 31.0156 5.30957C31.2956 5.44954 31.5023 5.61882 31.6357 5.81738C31.7725 6.0127 31.8408 6.25195 31.8408 6.53516C31.8408 7.00716 31.652 7.38639 31.2744 7.67285C30.8968 7.95605 30.4069 8.09766 29.8047 8.09766C29.3815 8.09766 29.0072 8.02279 28.6816 7.87305C28.3561 7.72331 28.1006 7.51497 27.915 7.24805C27.7327 6.97786 27.6416 6.68652 27.6416 6.37402H28.5449C28.5612 6.67676 28.6816 6.91764 28.9062 7.09668C29.1341 7.27246 29.4336 7.36035 29.8047 7.36035C30.1465 7.36035 30.4199 7.29199 30.625 7.15527C30.8333 7.0153 30.9375 6.82975 30.9375 6.59863ZM33.999 8H33.0957V2.7168H33.999V8ZM33.0225 1.31543C33.0225 1.16895 33.0664 1.04525 33.1543 0.944336C33.2454 0.843424 33.3789 0.792969 33.5547 0.792969C33.7305 0.792969 33.8639 0.843424 33.9551 0.944336C34.0462 1.04525 34.0918 1.16895 34.0918 1.31543C34.0918 1.46191 34.0462 1.58398 33.9551 1.68164C33.8639 1.7793 33.7305 1.82812 33.5547 1.82812C33.3789 1.82812 33.2454 1.7793 33.1543 1.68164C33.0664 1.58398 33.0225 1.46191 33.0225 1.31543ZM35.2344 5.31445C35.2344 4.49089 35.4248 3.83659 35.8057 3.35156C36.1865 2.86328 36.6911 2.61914 37.3193 2.61914C37.9639 2.61914 38.4668 2.84701 38.8281 3.30273L38.8721 2.7168H39.6973V7.87305C39.6973 8.55664 39.4938 9.09538 39.0869 9.48926C38.6833 9.88314 38.1396 10.0801 37.4561 10.0801C37.0752 10.0801 36.7025 9.9987 36.3379 9.83594C35.9733 9.67318 35.695 9.4502 35.5029 9.16699L35.9717 8.625C36.359 9.10352 36.8327 9.34277 37.3926 9.34277C37.832 9.34277 38.1738 9.21908 38.418 8.97168C38.6654 8.72428 38.7891 8.37598 38.7891 7.92676V7.47266C38.4277 7.88932 37.9346 8.09766 37.3096 8.09766C36.6911 8.09766 36.1898 7.84863 35.8057 7.35059C35.4248 6.85254 35.2344 6.17383 35.2344 5.31445ZM36.1426 5.41699C36.1426 6.0127 36.2646 6.48145 36.5088 6.82324C36.7529 7.16178 37.0947 7.33105 37.5342 7.33105C38.1038 7.33105 38.5221 7.07227 38.7891 6.55469V4.14258C38.5124 3.63802 38.0973 3.38574 37.5439 3.38574C37.1045 3.38574 36.7611 3.55664 36.5137 3.89844C36.2663 4.24023 36.1426 4.74642 36.1426 5.41699ZM41.9189 2.7168L41.9482 3.38086C42.3519 2.87305 42.8792 2.61914 43.5303 2.61914C44.6468 2.61914 45.21 3.24902 45.2197 4.50879V8H44.3164V4.50391C44.3132 4.12305 44.2253 3.84147 44.0527 3.65918C43.8835 3.47689 43.6182 3.38574 43.2568 3.38574C42.9639 3.38574 42.7067 3.46387 42.4854 3.62012C42.264 3.77637 42.0915 3.98145 41.9678 4.23535V8H41.0645V2.7168H41.9189ZM49.6582 6.59863C49.6582 6.35449 49.5654 6.16569 49.3799 6.03223C49.1976 5.89551 48.877 5.77832 48.418 5.68066C47.9622 5.58301 47.5993 5.46582 47.3291 5.3291C47.0622 5.19238 46.8636 5.02962 46.7334 4.84082C46.6064 4.65202 46.543 4.42741 46.543 4.16699C46.543 3.73405 46.7253 3.36784 47.0898 3.06836C47.4577 2.76888 47.9264 2.61914 48.4961 2.61914C49.0951 2.61914 49.5801 2.77376 49.9512 3.08301C50.3255 3.39225 50.5127 3.78776 50.5127 4.26953H49.6045C49.6045 4.02214 49.4987 3.80892 49.2871 3.62988C49.0788 3.45085 48.8151 3.36133 48.4961 3.36133C48.1673 3.36133 47.9102 3.43294 47.7246 3.57617C47.5391 3.7194 47.4463 3.90658 47.4463 4.1377C47.4463 4.35579 47.5326 4.52018 47.7051 4.63086C47.8776 4.74154 48.1885 4.84733 48.6377 4.94824C49.0902 5.04915 49.4564 5.1696 49.7363 5.30957C50.0163 5.44954 50.223 5.61882 50.3564 5.81738C50.4932 6.0127 50.5615 6.25195 50.5615 6.53516C50.5615 7.00716 50.3727 7.38639 49.9951 7.67285C49.6175 7.95605 49.1276 8.09766 48.5254 8.09766C48.1022 8.09766 47.7279 8.02279 47.4023 7.87305C47.0768 7.72331 46.8213 7.51497 46.6357 7.24805C46.4535 6.97786 46.3623 6.68652 46.3623 6.37402H47.2656C47.2819 6.67676 47.4023 6.91764 47.627 7.09668C47.8548 7.27246 48.1543 7.36035 48.5254 7.36035C48.8672 7.36035 49.1406 7.29199 49.3457 7.15527C49.554 7.0153 49.6582 6.82975 49.6582 6.59863Z" fill="#9E9E9E"/>
</svg>
