<svg width="67" height="67" viewBox="0 0 67 67" fill="none" xmlns="http://www.w3.org/2000/svg">
<path d="M55.0989 54.2861C54.5569 54.2861 54.1174 54.7255 54.1174 55.2675V64.495C54.1174 64.7937 53.8743 65.0368 53.5755 65.0368H48.2997V45.7093C48.2997 45.1673 47.8603 44.7279 47.3182 44.7279C46.7762 44.7279 46.3368 45.1673 46.3368 45.7093V65.037H35.713L38.7938 61.6477C39.1304 61.2774 39.2891 60.7499 39.2183 60.2361C39.217 60.2262 39.2154 60.2163 39.2137 60.2063L36.2795 42.8718L37.07 41.6817C37.5071 41.9921 37.8438 42.291 38.4752 42.291C39.1174 42.291 39.7179 41.9315 40.0134 41.3398L43.1082 35.1369L50.1584 37.8673C50.4135 37.9767 54.1172 39.6446 54.1172 44.0488V50.6873C54.117 51.2292 54.5565 51.6688 55.0986 51.6688C55.6406 51.6688 56.0801 51.2294 56.0801 50.6873V44.0488C56.0801 38.246 51.1115 36.1367 50.9 36.0497C50.8938 36.0471 50.8876 36.0446 50.8813 36.0422L39.1474 31.498V28.746C41.0111 27.2966 42.3033 25.148 42.6277 22.6968C43.5569 22.6313 44.4192 22.2843 45.1233 21.6788C46.0429 20.888 46.5705 19.7371 46.5705 18.5217C46.5705 17.513 46.2066 16.5499 45.558 15.7994V12.1638C45.5579 5.45671 40.1013 0 33.3943 0C26.6872 0 21.2306 5.45671 21.2306 12.1638V15.8947C20.5752 16.6376 20.2187 17.552 20.2187 18.5216C20.2187 19.7374 20.7461 20.8882 21.6659 21.6791C22.3695 22.2843 23.2312 22.631 24.1602 22.6965C24.4872 25.1937 25.8171 27.4224 27.8396 28.8913V31.498L16.1184 36.0421C16.1122 36.0444 16.106 36.0469 16.0999 36.0494C15.8883 36.1364 10.9198 38.2457 10.9198 44.0486V64.4947C10.9198 65.8759 12.0435 66.9996 13.4247 66.9996H22.7756C23.3176 66.9996 23.757 66.5602 23.757 66.0182C23.757 65.4761 23.3176 65.0367 22.7756 65.0367H20.6639V45.7093C20.6639 45.1673 20.2245 44.7279 19.6824 44.7279C19.1404 44.7279 18.701 45.1673 18.701 45.7093V65.037H13.4249C13.1261 65.037 12.883 64.7938 12.883 64.4951V44.0487C12.883 39.6297 16.6116 37.9656 16.8406 37.8677L23.8852 35.1367L26.9803 41.3397C27.2765 41.9328 27.8778 42.291 28.5187 42.291C29.147 42.291 29.4804 41.9967 29.9239 41.6817L30.7144 42.8718L27.7804 60.2064C27.7787 60.2163 27.7773 60.2261 27.7758 60.236C27.7049 60.7495 27.8636 61.2773 28.2003 61.6479L31.2812 65.0371H27.356C26.814 65.0371 26.3746 65.4765 26.3746 66.0186C26.3746 66.5606 26.814 67 27.356 67H53.5757C54.9569 67 56.0806 65.8762 56.0806 64.4951V55.2677C56.0803 54.7255 55.6409 54.2861 55.0989 54.2861ZM41.2698 34.425L38.3845 40.2077C38.3128 40.1568 36.7837 39.0704 34.9145 37.7431C35.7255 36.7419 34.7767 37.9131 38.4784 33.344L41.2698 34.425ZM35.4685 40.5446L34.7203 41.6709H32.2728L31.5246 40.5446L33.4966 39.144L35.4685 40.5446ZM29.8023 31.8147V29.9779C30.9947 30.4586 32.269 30.6814 33.5135 30.6814C34.8002 30.6814 36.0621 30.4071 37.1844 29.9164V31.8226L33.4966 36.3746L29.8023 31.8147ZM44.6075 18.5217C44.6074 19.1646 44.3289 19.773 43.8434 20.1906C43.5224 20.4667 43.1347 20.6432 42.71 20.7123V16.3315C43.838 16.5147 44.6075 17.4504 44.6075 18.5217ZM24.0791 20.7123C22.9382 20.5271 22.1816 19.5839 22.1816 18.5216C22.1816 17.4723 23.0514 16.6184 24.0791 16.3808V20.7123ZM24.1318 14.3809C23.8192 14.4168 23.4609 14.5014 23.1938 14.5923V12.1638C23.1938 6.53904 27.7697 1.96302 33.3944 1.96302C39.0191 1.96302 43.595 6.53904 43.595 12.1638V14.5249C43.3098 14.4381 43.0139 14.3808 42.7102 14.3538C42.7102 13.4068 42.7184 13.5895 39.6203 10.2587C39.0505 9.64656 38.1081 9.51832 37.3909 9.98693C33.9715 12.2206 29.8004 13.3427 25.9518 13.0663C25.1076 13.0031 24.3387 13.5591 24.1318 14.3809ZM26.0421 21.485V15.3618V15.0393C30.2786 15.2874 34.7204 14.0288 38.3087 11.7308C39.7296 13.2563 40.499 14.0565 40.7471 14.3609C40.7471 15.1309 40.7471 20.6035 40.7471 21.4849C40.7471 25.4692 37.4984 28.7183 33.5136 28.7183C29.039 28.7184 26.0421 25.2472 26.0421 21.485ZM28.6089 40.2077L25.7236 34.425L28.51 33.3458L32.0747 37.746C30.2619 39.0333 28.7734 40.0909 28.6089 40.2077ZM29.7349 60.418L32.5757 43.6336H34.4171L37.2579 60.418L33.4965 64.5562L29.7349 60.418Z" fill="#333333"/>
</svg>
