<svg width="67" height="67" viewBox="0 0 67 67" fill="none" xmlns="http://www.w3.org/2000/svg">
<g clip-path="url(#clip0)">
<path d="M27.0726 42.5994C26.7571 42.5994 26.5013 42.8552 26.5013 43.1707V48.5418C26.5013 48.7157 26.3598 48.8573 26.1859 48.8573H23.1148V37.6069C23.1148 37.2914 22.859 37.0356 22.5435 37.0356C22.228 37.0356 21.9723 37.2914 21.9723 37.6069V48.8573H15.7882L17.5816 46.8845C17.7775 46.6689 17.8699 46.3619 17.8287 46.0628C17.8279 46.057 17.827 46.0513 17.826 46.0455L16.118 35.9552L16.5781 35.2625C16.8326 35.4432 17.0285 35.6171 17.3961 35.6171C17.7699 35.6171 18.1195 35.4079 18.2915 35.0635L20.0929 31.4528L24.1968 33.0422C24.3452 33.1058 26.5011 34.0767 26.5011 36.6404V40.5046C26.501 40.82 26.7568 41.0759 27.0724 41.0759C27.3879 41.0759 27.6437 40.8201 27.6437 40.5046V36.6404C27.6437 33.2626 24.7515 32.0348 24.6284 31.9841C24.6249 31.9826 24.6212 31.9812 24.6175 31.9798L17.7874 29.3346V27.7328C18.8722 26.8891 19.6244 25.6384 19.8132 24.2116C20.3541 24.1735 20.856 23.9715 21.2659 23.619C21.8012 23.1587 22.1083 22.4888 22.1083 21.7813C22.1083 21.1942 21.8965 20.6335 21.519 20.1967V18.0804C21.5189 14.1763 18.3427 11 14.4385 11C10.5344 11 7.35822 14.1763 7.35822 18.0804V20.2521C6.97667 20.6846 6.76918 21.2169 6.76918 21.7812C6.76918 22.4889 7.07615 23.1588 7.61157 23.6192C8.02114 23.9715 8.52273 24.1732 9.06348 24.2114C9.25383 25.665 10.028 26.9623 11.2052 27.8173V29.3346L4.38241 31.9797C4.37883 31.9811 4.37525 31.9825 4.37167 31.984C4.2485 32.0346 1.35641 33.2624 1.35641 36.6402V48.5417C1.35641 49.3457 2.01049 49.9998 2.81449 49.9998H8.2575C8.57301 49.9998 8.82879 49.744 8.82879 49.4285C8.82879 49.113 8.57301 48.8572 8.2575 48.8572H7.02832V37.6069C7.02832 37.2914 6.77253 37.0356 6.45703 37.0356C6.14152 37.0356 5.88574 37.2914 5.88574 37.6069V48.8573H2.81457C2.64066 48.8573 2.49914 48.7158 2.49914 48.5419V36.6403C2.49914 34.068 4.6695 33.0994 4.8028 33.0424L8.90344 31.4527L10.7051 35.0634C10.8774 35.4087 11.2274 35.6171 11.6005 35.6171C11.9662 35.6171 12.1603 35.4458 12.4185 35.2625L12.8786 35.9552L11.1708 46.0455C11.1698 46.0513 11.1689 46.057 11.1681 46.0628C11.1268 46.3617 11.2192 46.6689 11.4152 46.8846L13.2085 48.8574H10.9237C10.6082 48.8574 10.3525 49.1132 10.3525 49.4287C10.3525 49.7442 10.6082 50 10.9237 50H26.1859C26.9899 50 27.644 49.3458 27.644 48.5419V43.1707C27.6439 42.8552 27.3881 42.5994 27.0726 42.5994ZM19.0228 31.0385L17.3433 34.4045C17.3015 34.3749 16.4115 33.7425 15.3234 32.9699C15.7955 32.3871 15.2432 33.0688 17.398 30.4092L19.0228 31.0385ZM15.6459 34.6006L15.2104 35.2562H13.7858L13.3502 34.6006L14.4981 33.7853L15.6459 34.6006ZM12.3477 29.519V28.4498C13.0418 28.7296 13.7835 28.8593 14.5079 28.8593C15.2569 28.8593 15.9915 28.6997 16.6447 28.414V29.5236L14.4981 32.1733L12.3477 29.519ZM20.9656 21.7813C20.9656 22.1555 20.8035 22.5096 20.5209 22.7527C20.334 22.9134 20.1083 23.0162 19.8611 23.0564V20.5064C20.5177 20.613 20.9656 21.1577 20.9656 21.7813ZM9.01625 23.0564C8.35219 22.9486 7.91176 22.3996 7.91176 21.7812C7.91176 21.1705 8.41807 20.6734 9.01625 20.5351V23.0564ZM9.04695 19.371C8.86497 19.3919 8.65642 19.4411 8.50095 19.494V18.0804C8.50095 14.8063 11.1645 12.1427 14.4386 12.1427C17.7127 12.1427 20.3763 14.8063 20.3763 18.0804V19.4548C20.2102 19.4043 20.038 19.3709 19.8612 19.3552C19.8612 18.804 19.866 18.9103 18.0627 16.9715C17.731 16.6152 17.1824 16.5405 16.7649 16.8133C14.7745 18.1135 12.3466 18.7666 10.1063 18.6058C9.61496 18.569 9.16738 18.8926 9.04695 19.371ZM10.1589 23.5062V19.942V19.7542C12.625 19.8986 15.2105 19.166 17.2992 17.8284C18.1263 18.7164 18.5741 19.1822 18.7186 19.3593C18.7186 19.8075 18.7186 22.9931 18.7186 23.5061C18.7186 25.8253 16.8275 27.7166 14.508 27.7166C11.9034 27.7167 10.1589 25.6961 10.1589 23.5062ZM11.653 34.4045L9.9735 31.0385L11.5954 30.4103L13.6704 32.9715C12.6152 33.7208 11.7488 34.3365 11.653 34.4045ZM12.3085 46.1687L13.9621 36.3987H15.0339L16.6875 46.1687L14.498 48.5775L12.3085 46.1687Z" fill="#C8C8C8"/>
<path d="M67.0726 42.5994C66.7571 42.5994 66.5013 42.8552 66.5013 43.1707V48.5418C66.5013 48.7157 66.3598 48.8573 66.1859 48.8573H63.1148V37.6069C63.1148 37.2914 62.859 37.0356 62.5435 37.0356C62.228 37.0356 61.9723 37.2914 61.9723 37.6069V48.8573H55.7882L57.5816 46.8845C57.7775 46.6689 57.8699 46.3619 57.8287 46.0628C57.8279 46.057 57.827 46.0513 57.826 46.0455L56.118 35.9552L56.5781 35.2625C56.8326 35.4432 57.0285 35.6171 57.3961 35.6171C57.7699 35.6171 58.1195 35.4079 58.2915 35.0635L60.0929 31.4528L64.1968 33.0422C64.3452 33.1058 66.5011 34.0767 66.5011 36.6404V40.5046C66.501 40.82 66.7568 41.0759 67.0724 41.0759C67.3879 41.0759 67.6437 40.8201 67.6437 40.5046V36.6404C67.6437 33.2626 64.7515 32.0348 64.6284 31.9841C64.6249 31.9826 64.6212 31.9812 64.6175 31.9798L57.7874 29.3346V27.7328C58.8722 26.8891 59.6244 25.6384 59.8132 24.2116C60.3541 24.1735 60.856 23.9715 61.2659 23.619C61.8012 23.1587 62.1083 22.4888 62.1083 21.7813C62.1083 21.1942 61.8965 20.6335 61.519 20.1967V18.0804C61.5189 14.1763 58.3427 11 54.4385 11C50.5344 11 47.3582 14.1763 47.3582 18.0804V20.2521C46.9767 20.6846 46.7692 21.2169 46.7692 21.7812C46.7692 22.4889 47.0762 23.1588 47.6116 23.6192C48.0211 23.9715 48.5227 24.1732 49.0635 24.2114C49.2538 25.665 50.028 26.9623 51.2052 27.8173V29.3346L44.3824 31.9797C44.3788 31.9811 44.3753 31.9825 44.3717 31.984C44.2485 32.0346 41.3564 33.2624 41.3564 36.6402V48.5417C41.3564 49.3457 42.0105 49.9998 42.8145 49.9998H48.2575C48.573 49.9998 48.8288 49.744 48.8288 49.4285C48.8288 49.113 48.573 48.8572 48.2575 48.8572H47.0283V37.6069C47.0283 37.2914 46.7725 37.0356 46.457 37.0356C46.1415 37.0356 45.8857 37.2914 45.8857 37.6069V48.8573H42.8146C42.6407 48.8573 42.4991 48.7158 42.4991 48.5419V36.6403C42.4991 34.068 44.6695 33.0994 44.8028 33.0424L48.9034 31.4527L50.7051 35.0634C50.8774 35.4087 51.2274 35.6171 51.6005 35.6171C51.9662 35.6171 52.1603 35.4458 52.4185 35.2625L52.8786 35.9552L51.1708 46.0455C51.1698 46.0513 51.1689 46.057 51.1681 46.0628C51.1268 46.3617 51.2192 46.6689 51.4152 46.8846L53.2085 48.8574H50.9237C50.6082 48.8574 50.3525 49.1132 50.3525 49.4287C50.3525 49.7442 50.6082 50 50.9237 50H66.1859C66.9899 50 67.644 49.3458 67.644 48.5419V43.1707C67.6439 42.8552 67.3881 42.5994 67.0726 42.5994ZM59.0228 31.0385L57.3433 34.4045C57.3015 34.3749 56.4115 33.7425 55.3234 32.9699C55.7955 32.3871 55.2432 33.0688 57.398 30.4092L59.0228 31.0385ZM55.6459 34.6006L55.2104 35.2562H53.7858L53.3502 34.6006L54.4981 33.7853L55.6459 34.6006ZM52.3477 29.519V28.4498C53.0418 28.7296 53.7835 28.8593 54.5079 28.8593C55.2569 28.8593 55.9915 28.6997 56.6447 28.414V29.5236L54.4981 32.1733L52.3477 29.519ZM60.9656 21.7813C60.9656 22.1555 60.8035 22.5096 60.5209 22.7527C60.334 22.9134 60.1083 23.0162 59.8611 23.0564V20.5064C60.5177 20.613 60.9656 21.1577 60.9656 21.7813ZM49.0163 23.0564C48.3522 22.9486 47.9118 22.3996 47.9118 21.7812C47.9118 21.1705 48.4181 20.6734 49.0163 20.5351V23.0564ZM49.0469 19.371C48.865 19.3919 48.6564 19.4411 48.5009 19.494V18.0804C48.5009 14.8063 51.1645 12.1427 54.4386 12.1427C57.7127 12.1427 60.3763 14.8063 60.3763 18.0804V19.4548C60.2102 19.4043 60.038 19.3709 59.8612 19.3552C59.8612 18.804 59.866 18.9103 58.0627 16.9715C57.731 16.6152 57.1824 16.5405 56.7649 16.8133C54.7745 18.1135 52.3466 18.7666 50.1063 18.6058C49.615 18.569 49.1674 18.8926 49.0469 19.371ZM50.1589 23.5062V19.942V19.7542C52.625 19.8986 55.2105 19.166 57.2992 17.8284C58.1263 18.7164 58.5741 19.1822 58.7186 19.3593C58.7186 19.8075 58.7186 22.9931 58.7186 23.5061C58.7186 25.8253 56.8275 27.7166 54.508 27.7166C51.9034 27.7167 50.1589 25.6961 50.1589 23.5062ZM51.653 34.4045L49.9735 31.0385L51.5954 30.4103L53.6704 32.9715C52.6152 33.7208 51.7488 34.3365 51.653 34.4045ZM52.3085 46.1687L53.9621 36.3987H55.0339L56.6875 46.1687L54.498 48.5775L52.3085 46.1687Z" fill="#C8C8C8"/>
<path d="M55.0989 54.2861C54.5569 54.2861 54.1174 54.7255 54.1174 55.2675V64.495C54.1174 64.7937 53.8743 65.0368 53.5755 65.0368H48.2997V45.7093C48.2997 45.1673 47.8603 44.7279 47.3182 44.7279C46.7762 44.7279 46.3368 45.1673 46.3368 45.7093V65.037H35.713L38.7938 61.6477C39.1304 61.2774 39.2891 60.7499 39.2183 60.2361C39.217 60.2262 39.2154 60.2163 39.2137 60.2063L36.2795 42.8718L37.07 41.6817C37.5071 41.9921 37.8438 42.291 38.4752 42.291C39.1174 42.291 39.7179 41.9315 40.0134 41.3398L43.1082 35.1369L50.1584 37.8673C50.4135 37.9767 54.1172 39.6446 54.1172 44.0488V50.6873C54.117 51.2292 54.5565 51.6688 55.0986 51.6688C55.6406 51.6688 56.0801 51.2294 56.0801 50.6873V44.0488C56.0801 38.246 51.1115 36.1367 50.9 36.0497C50.8938 36.0471 50.8876 36.0446 50.8813 36.0422L39.1474 31.498V28.746C41.0111 27.2966 42.3033 25.148 42.6277 22.6968C43.5569 22.6313 44.4192 22.2843 45.1233 21.6788C46.0429 20.888 46.5705 19.7371 46.5705 18.5217C46.5705 17.513 46.2066 16.5499 45.558 15.7994V12.1638C45.5579 5.45671 40.1013 0 33.3943 0C26.6872 0 21.2306 5.45671 21.2306 12.1638V15.8947C20.5752 16.6376 20.2187 17.552 20.2187 18.5216C20.2187 19.7374 20.7461 20.8882 21.6659 21.6791C22.3695 22.2843 23.2312 22.631 24.1602 22.6965C24.4872 25.1937 25.8171 27.4224 27.8396 28.8913V31.498L16.1184 36.0421C16.1122 36.0444 16.106 36.0469 16.0999 36.0494C15.8883 36.1364 10.9198 38.2457 10.9198 44.0486V64.4947C10.9198 65.8759 12.0435 66.9996 13.4247 66.9996H22.7756C23.3176 66.9996 23.757 66.5602 23.757 66.0182C23.757 65.4761 23.3176 65.0367 22.7756 65.0367H20.6639V45.7093C20.6639 45.1673 20.2245 44.7279 19.6824 44.7279C19.1404 44.7279 18.701 45.1673 18.701 45.7093V65.037H13.4249C13.1261 65.037 12.883 64.7938 12.883 64.4951V44.0487C12.883 39.6297 16.6116 37.9656 16.8406 37.8677L23.8852 35.1367L26.9803 41.3397C27.2765 41.9328 27.8778 42.291 28.5187 42.291C29.147 42.291 29.4804 41.9967 29.9239 41.6817L30.7144 42.8718L27.7804 60.2064C27.7787 60.2163 27.7773 60.2261 27.7758 60.236C27.7049 60.7495 27.8636 61.2773 28.2003 61.6479L31.2812 65.0371H27.356C26.814 65.0371 26.3746 65.4765 26.3746 66.0186C26.3746 66.5606 26.814 67 27.356 67H53.5757C54.9569 67 56.0806 65.8762 56.0806 64.4951V55.2677C56.0803 54.7255 55.6409 54.2861 55.0989 54.2861ZM41.2698 34.425L38.3845 40.2077C38.3128 40.1568 36.7837 39.0704 34.9145 37.7431C35.7255 36.7419 34.7767 37.9131 38.4784 33.344L41.2698 34.425ZM35.4685 40.5446L34.7203 41.6709H32.2728L31.5246 40.5446L33.4966 39.144L35.4685 40.5446ZM29.8023 31.8147V29.9779C30.9947 30.4586 32.269 30.6814 33.5135 30.6814C34.8002 30.6814 36.0621 30.4071 37.1844 29.9164V31.8226L33.4966 36.3746L29.8023 31.8147ZM44.6075 18.5217C44.6074 19.1646 44.3289 19.773 43.8434 20.1906C43.5224 20.4667 43.1347 20.6432 42.71 20.7123V16.3315C43.838 16.5147 44.6075 17.4504 44.6075 18.5217ZM24.0791 20.7123C22.9382 20.5271 22.1816 19.5839 22.1816 18.5216C22.1816 17.4723 23.0514 16.6184 24.0791 16.3808V20.7123ZM24.1318 14.3809C23.8192 14.4168 23.4609 14.5014 23.1938 14.5923V12.1638C23.1938 6.53904 27.7697 1.96302 33.3944 1.96302C39.0191 1.96302 43.595 6.53904 43.595 12.1638V14.5249C43.3098 14.4381 43.0139 14.3808 42.7102 14.3538C42.7102 13.4068 42.7184 13.5895 39.6203 10.2587C39.0505 9.64656 38.1081 9.51832 37.3909 9.98693C33.9715 12.2206 29.8004 13.3427 25.9518 13.0663C25.1076 13.0031 24.3387 13.5591 24.1318 14.3809ZM26.0421 21.485V15.3618V15.0393C30.2786 15.2874 34.7204 14.0288 38.3087 11.7308C39.7296 13.2563 40.499 14.0565 40.7471 14.3609C40.7471 15.1309 40.7471 20.6035 40.7471 21.4849C40.7471 25.4692 37.4984 28.7183 33.5136 28.7183C29.039 28.7184 26.0421 25.2472 26.0421 21.485ZM28.6089 40.2077L25.7236 34.425L28.51 33.3458L32.0747 37.746C30.2619 39.0333 28.7734 40.0909 28.6089 40.2077ZM29.7349 60.418L32.5757 43.6336H34.4171L37.2579 60.418L33.4965 64.5562L29.7349 60.418Z" fill="#333333"/>
</g>
<defs>
<clipPath id="clip0">
<rect width="67" height="67" fill="white"/>
</clipPath>
</defs>
</svg>
