<svg width="30" height="30" viewBox="0 0 30 30" fill="none" xmlns="http://www.w3.org/2000/svg">
<path d="M15 0C6.71537 0 0 6.71537 0 15C0 23.2846 6.71537 30 15 30C23.2846 30 30 23.2846 30 15C30 6.71537 23.2846 0 15 0ZM15 27.6562C8.00994 27.6562 2.34375 21.9901 2.34375 15C2.34375 8.00994 8.00994 2.34375 15 2.34375C21.9901 2.34375 27.6562 8.00994 27.6562 15C27.6562 21.9901 21.9901 27.6562 15 27.6562Z" fill="white"/>
<path d="M18.5596 12.7038H15.9503V10.7995C15.9503 10.2154 16.5546 10.0799 16.8366 10.0799C17.1167 10.0799 18.5221 10.0799 18.5221 10.0799V7.51008L16.5903 7.5C13.9546 7.5 13.353 9.41619 13.353 10.6448V12.7039H11.4404V15.3516H13.353C13.353 18.7509 13.353 22.5 13.353 22.5H15.9503C15.9503 22.5 15.9503 18.7124 15.9503 15.3516H18.1567L18.5596 12.7038Z" fill="white"/>
</svg>
