<svg width="32" height="32" viewBox="0 0 32 32" fill="none" xmlns="http://www.w3.org/2000/svg">
<path d="M16 0C7.17756 0 0 7.17756 0 16C0 24.8224 7.17756 32 16 32C24.8224 32 32 24.8224 32 16C32 7.17756 24.8224 0 16 0ZM16 30.1694C8.18703 30.1694 1.83059 23.813 1.83059 16C1.83059 8.18703 8.18703 1.83059 16 1.83059C23.813 1.83059 30.1694 8.18703 30.1694 16C30.1694 23.813 23.813 30.1694 16 30.1694Z" fill="white"/>
<path d="M21.8266 8.16919H10.1734C9.10792 8.16919 8.24113 9.03598 8.24113 10.1015V21.8986C8.24113 22.9642 9.10792 23.8309 10.1734 23.8309H21.8266C22.8921 23.8309 23.7589 22.9642 23.7589 21.8986V10.1015C23.7589 9.03608 22.8921 8.16919 21.8266 8.16919ZM21.9283 21.8986C21.9283 21.9548 21.8827 22.0003 21.8266 22.0003H10.1734C10.1173 22.0003 10.0717 21.9548 10.0717 21.8986V10.1015C10.0717 10.0453 10.1173 9.99978 10.1734 9.99978H21.8266C21.8827 9.99978 21.9283 10.0453 21.9283 10.1015V21.8986Z" fill="white"/>
<path d="M20.7668 11.3713H18.6703V13.2946H20.7668V11.3713Z" fill="white"/>
<path d="M16 18.8419C17.1415 18.8419 18.0669 17.9165 18.0669 16.7749C18.0669 15.6334 17.1415 14.708 16 14.708C14.8584 14.708 13.933 15.6334 13.933 16.7749C13.933 17.9165 14.8584 18.8419 16 18.8419Z" fill="white"/>
<path d="M19.297 16.7659C19.297 18.5868 17.8209 20.0628 16.0001 20.0628C14.1793 20.0628 12.7032 18.5868 12.7032 16.7659L12.7077 15.2969H11.2333V20.7643H20.767V15.2969H19.3046L19.297 16.7659Z" fill="white"/>
</svg>
