<svg width="55" height="55" viewBox="0 0 55 55" fill="none" xmlns="http://www.w3.org/2000/svg">
<path d="M23.2031 48.2324C22.6102 48.2324 22.1289 48.7137 22.1289 49.3066C22.1289 49.8996 22.6102 50.3809 23.2031 50.3809C23.7961 50.3809 24.2773 49.8996 24.2773 49.3066C24.2773 48.7137 23.7961 48.2324 23.2031 48.2324Z" fill="#333333"/>
<path d="M29.6484 37.4902H28.5742V29.9707C28.5742 29.3774 28.0933 28.8965 27.5 28.8965H25.3516C24.7583 28.8965 24.2773 29.3774 24.2773 29.9707C24.2773 30.564 24.7583 31.0449 25.3516 31.0449H26.4258V37.4902H25.3516C24.7583 37.4902 24.2773 37.9712 24.2773 38.5645C24.2773 39.1577 24.7583 39.6387 25.3516 39.6387H29.6484C30.2417 39.6387 30.7227 39.1577 30.7227 38.5645C30.7227 37.9712 30.2417 37.4902 29.6484 37.4902Z" fill="#333333"/>
<path d="M12.1387 43.9355C12.732 43.9355 13.2129 43.4546 13.2129 42.8613V38.5645C13.2129 37.9712 12.732 37.4902 12.1387 37.4902H7.8418C7.24851 37.4902 6.76758 37.9712 6.76758 38.5645C6.76758 39.1577 7.24851 39.6387 7.8418 39.6387H11.0645V41.7871H7.8418C7.24851 41.7871 6.76758 42.268 6.76758 42.8613V47.1582C6.76758 47.7515 7.24851 48.2324 7.8418 48.2324H12.1387C12.732 48.2324 13.2129 47.7515 13.2129 47.1582C13.2129 46.5649 12.732 46.084 12.1387 46.084H8.91602V43.9355H12.1387Z" fill="#333333"/>
<path d="M47.1582 39.6387H42.8613C42.268 39.6387 41.7871 40.1196 41.7871 40.7129C41.7871 41.3062 42.268 41.7871 42.8613 41.7871H46.084V43.9355H42.8613C42.268 43.9355 41.7871 44.4165 41.7871 45.0098C41.7871 45.6031 42.268 46.084 42.8613 46.084H46.084V48.2324H42.8613C42.268 48.2324 41.7871 48.7133 41.7871 49.3066C41.7871 49.8999 42.268 50.3809 42.8613 50.3809H47.1582C47.7515 50.3809 48.2324 49.8999 48.2324 49.3066V40.7129C48.2324 40.1196 47.7515 39.6387 47.1582 39.6387Z" fill="#333333"/>
<path d="M53.9258 35.3418H37.168V25.3516C37.168 24.7583 36.687 24.2773 36.0938 24.2773H18.9062C18.313 24.2773 17.832 24.7583 17.832 25.3516V31.0449H1.07422C0.480928 31.0449 0 31.5258 0 32.1191V53.9258C0 54.519 0.480928 55 1.07422 55H18.9062H36.0938H53.9258C54.5191 55 55 54.519 55 53.9258V36.416C55 35.8227 54.5191 35.3418 53.9258 35.3418ZM17.832 52.8516H2.14844V33.1934H17.832V52.8516ZM35.0195 52.8516H19.9805V26.4258H35.0195V52.8516ZM52.8516 52.8516H37.168V37.4902H52.8516V52.8516Z" fill="#333333"/>
<path d="M38.1639 8.18651C38.0375 7.79765 37.7013 7.51416 37.2967 7.4554L31.1806 6.56691L28.4332 0.623477C28.2574 0.243418 27.8769 0 27.4581 0C27.0395 0 26.6588 0.243311 26.483 0.623369L23.7347 6.56713L17.6185 7.45562C17.2138 7.51437 16.8777 7.79786 16.7513 8.18673C16.6249 8.5756 16.7303 9.00249 17.0231 9.28791L21.465 13.6175L20.4124 20.0532C20.3467 20.4553 20.5139 20.8599 20.8445 21.0982C21.1751 21.3363 21.612 21.3671 21.9724 21.1775L27.4579 18.2929L32.9423 21.1774C33.0996 21.2601 33.2712 21.3008 33.4423 21.3008C33.6636 21.3008 33.8839 21.2325 34.0704 21.0981C34.4009 20.8599 34.5683 20.4553 34.5025 20.0531L33.4499 13.6174L37.8918 9.2878C38.1848 9.00238 38.2902 8.57549 38.1639 8.18651ZM31.5498 12.4694C31.2988 12.7141 31.1829 13.066 31.2395 13.4121L32.0344 18.272L27.9581 16.1282C27.645 15.9636 27.2711 15.9636 26.9581 16.1282L22.8806 18.2722L23.6756 13.4121C23.7322 13.066 23.6164 12.7141 23.3652 12.4694L20.0814 9.26868L24.6197 8.60943C24.9791 8.55723 25.2879 8.32691 25.4403 7.99724L27.4579 3.63397L29.4746 7.99702C29.6271 8.32681 29.9358 8.55712 30.2953 8.60933L34.8336 9.26857L31.5498 12.4694Z" fill="#333333"/>
<path d="M31.7969 48.2324H27.5C26.9067 48.2324 26.4258 48.7133 26.4258 49.3066C26.4258 49.8999 26.9067 50.3809 27.5 50.3809H31.7969C32.3902 50.3809 32.8711 49.8999 32.8711 49.3066C32.8711 48.7133 32.3902 48.2324 31.7969 48.2324Z" fill="#333333"/>
</svg>
