<svg width="32" height="32" viewBox="0 0 32 32" fill="none" xmlns="http://www.w3.org/2000/svg">
<circle cx="16" cy="16" r="15" stroke="white" stroke-width="2"/>
<path d="M14.0384 19.3533C14.0385 19.3491 14.0386 19.3452 14.0386 19.3416C13.8781 19.1985 13.7445 19.0245 13.6512 18.8267C13.6463 18.8165 13.6416 18.8062 13.637 18.7958C13.6067 18.7278 13.5812 18.657 13.5609 18.5838L14.0384 19.3533ZM14.0384 19.3533L13.518 19.0828C13.4296 19.0461 13.3541 19.0294 13.291 19.0294C13.2608 19.0294 13.2335 19.0332 13.2089 19.0404L14.0384 19.3533ZM14.0471 19.3491C14.0555 19.3565 14.064 19.3638 14.0725 19.371L14.0508 19.3597C14.0494 19.356 14.0482 19.3524 14.0471 19.3491ZM14.0368 19.3111C14.0368 19.3111 14.037 19.3122 14.0373 19.3142C14.0369 19.3121 14.0367 19.3111 14.0368 19.3111Z" stroke="white" stroke-width="2"/>
</svg>
