<svg width="32" height="32" viewBox="0 0 32 32" fill="none" xmlns="http://www.w3.org/2000/svg">
<path d="M22.8611 12.8189C22.8611 12.6574 22.8582 12.4974 22.8509 12.3389C23.5419 11.8239 24.1411 11.1796 24.6153 10.4421C23.9811 10.7273 23.3004 10.9178 22.5847 10.9977C23.3149 10.5483 23.8749 9.82974 24.1397 8.9672C23.456 9.38174 22.6997 9.67847 21.8953 9.83267C21.2509 9.09954 20.3317 8.63267 19.3149 8.6152C17.3629 8.5832 15.7803 10.2327 15.7803 12.2996C15.7803 12.5934 15.8109 12.8785 15.8719 13.1534C12.9323 12.9643 10.3273 11.4341 8.58468 9.12721C8.28068 9.67994 8.10615 10.3257 8.10615 11.0181C8.10615 12.3273 8.73015 13.4909 9.67849 14.1774C9.09815 14.1513 8.55415 13.9753 8.07707 13.6872C8.07707 13.7032 8.07707 13.7192 8.07707 13.7352C8.07707 15.5651 9.296 17.0981 10.9134 17.456C10.6167 17.5403 10.3039 17.584 9.98248 17.5825C9.75414 17.5811 9.53302 17.5563 9.31775 17.5098C9.76722 19.0094 11.0734 20.1047 12.6196 20.141C11.4094 21.1446 9.88502 21.7439 8.22975 21.7396C7.94463 21.7396 7.66249 21.7207 7.38609 21.6858C8.95122 22.7592 10.8086 23.3846 12.8057 23.3846C19.3061 23.3862 22.8611 17.728 22.8611 12.8189Z" fill="white"/>
<path d="M32 16C32 7.16361 24.8363 0 16 0C7.16361 0 0 7.16361 0 16C0 24.8363 7.16361 32 16 32C24.8363 32 32 24.8363 32 16ZM1.45454 16C1.45454 7.96654 7.96654 1.45454 16 1.45454C24.0335 1.45454 30.5455 7.96654 30.5455 16C30.5455 24.0335 24.0335 30.5455 16 30.5455C7.96654 30.5455 1.45454 24.0335 1.45454 16Z" fill="white"/>
</svg>
